<?xml version="1.0" encoding="UTF-8"?> <!-- Generator: Adobe Illustrator 25.2.0, SVG Export Plug-In . SVG Version: 6.00 Build 0) --> <svg xmlns="http://www.w3.org/2000/svg" xmlns:xlink="http://www.w3.org/1999/xlink" version="1.1" id="Layer_1" x="0px" y="0px" viewBox="0 0 466 152.3" style="enable-background:new 0 0 466 152.3;" xml:space="preserve"> <style type="text/css"> .st0{fill:#9ACA3C;} .st1{fill:#55B047;} .st2{fill:#BFD730;} .st3{fill:#9BBA3C;} .st4{fill:url(#SVGID_1_);} </style> <g> <g> <path class="st0" d="M50.8,50.8H24.7C11,50.8,0,39.7,0,26.1V0h26.1c13.6,0,24.7,11,24.7,24.7V50.8z"></path> <path class="st1" d="M101.5,101.5H75.5c-13.6,0-24.7-11.1-24.7-24.7V50.8h26.1c13.6,0,24.7,11.1,24.7,24.7V101.5z"></path> <path class="st2" d="M50.8,152.3H0v-50.8h25.8c13.8,0,24.9,11.2,24.9,24.9V152.3z"></path> <path class="st3" d="M76.6,152.3H50.8v-25.8c0-13.8,11.2-24.9,24.9-24.9h25.8v25.8C101.5,141.1,90.4,152.3,76.6,152.3z"></path> </g> <g> <linearGradient id="SVGID_1_" gradientUnits="userSpaceOnUse" x1="461.9764" y1="61.32" x2="442.5891" y2="80.7074"> <stop offset="0" style="stop-color:#BFD730"></stop> <stop offset="1" style="stop-color:#55B047"></stop> </linearGradient> <path class="st4" d="M452.7,80.2h-10v-9.4c0-5.2,4.2-9.3,9.3-9.3h10v9.4C462.1,76.1,457.9,80.2,452.7,80.2z"></path> <g> <path d="M189.6,109.9c0,15.7-10.8,25.5-24.1,25.5c-6.4,0-11.2-1.8-14.5-5.7v4.9h-16.4V67.3h17.2v22.4c3.4-3.4,8-5.1,13.7-5.1 C178.8,84.6,189.6,94.3,189.6,109.9z M172.2,109.9c0-7.4-4.5-11.6-10.3-11.6c-5.8,0-10.3,4.2-10.3,11.6c0,7.5,4.5,11.8,10.3,11.8 C167.6,121.7,172.2,117.4,172.2,109.9z"></path> <path d="M196.3,109.9c0-14.8,11.7-25.3,27.7-25.3c16.2,0,27.7,10.5,27.7,25.3c0,14.9-11.5,25.5-27.7,25.5 C208,135.4,196.3,124.8,196.3,109.9z M234.4,109.9c0-7.4-4.4-11.6-10.3-11.6c-5.8,0-10.3,4.2-10.3,11.6c0,7.5,4.5,11.8,10.3,11.8 C229.9,121.7,234.4,117.4,234.4,109.9z"></path> <path d="M313.9,106.5v28.1h-17.2v-25.3c0-7.1-3.1-10.1-8.1-10.1c-5.5,0-9.8,3.4-9.8,11.6v23.8h-17.2V85.4H278v5.3 c3.9-4.1,9.4-6.2,15.6-6.2C305.1,84.6,313.9,91.2,313.9,106.5z"></path> <path d="M322.6,130.3l5.2-11.8c4.5,2.8,11.2,4.5,17.1,4.5c5.8,0,7.7-1.3,7.7-3.4c0-6.6-29,0.9-29-18.8c0-9.2,8.5-16.3,23.9-16.3 c6.9,0,14.5,1.4,19.4,4.2l-5.2,11.7c-4.9-2.7-9.8-3.6-14.1-3.6c-5.8,0-7.9,1.6-7.9,3.4c0,6.8,28.9-0.5,28.9,19 c0,9.1-8.3,16.1-24.3,16.1C336,135.4,327.4,133.3,322.6,130.3z"></path> <path d="M429.9,85.4v49.1h-16.4v-4.9c-3.3,3.9-8.1,5.7-14.5,5.7c-13.3,0-24.1-9.8-24.1-25.5c0-15.6,10.8-25.3,24.1-25.3 c5.7,0,10.3,1.6,13.7,5.1v-4.3H429.9z M412.9,109.9c0-7.4-4.5-11.6-10.3-11.6s-10.3,4.2-10.3,11.6c0,7.5,4.5,11.8,10.3,11.8 S412.9,117.4,412.9,109.9z"></path> <rect x="442.8" y="85.4" width="17.2" height="49.1"></rect> </g> </g> </g> </svg> 