<?xml version="1.0" encoding="UTF-8"?> <!-- Generator: Adobe Illustrator 25.2.0, SVG Export Plug-In . SVG Version: 6.00 Build 0) --> <svg xmlns="http://www.w3.org/2000/svg" xmlns:xlink="http://www.w3.org/1999/xlink" version="1.1" x="0px" y="0px" viewBox="0 0 800 542.1" style="enable-background:new 0 0 800 542.1;" xml:space="preserve"> <style type="text/css"> .st0{display:none;} .st1{display:inline;} .st2{fill:#54A832;} .st3{fill:#F2F2F2;} .st4{fill:#2F2E41;} .st5{fill:#3F3D56;} .st6{opacity:0.1;enable-background:new ;} .st7{fill:#FBBEBE;} .st8{fill:#A0616A;} .st9{fill:#57B894;} .st10{fill:#E6E6E6;} .st11{fill:#FFFFFF;} .st12{fill:#FFB6B6;} .st13{fill:#E4E4E4;} .st14{fill:#FFB8B8;} .st15{fill:#9E616A;} .st16{opacity:0.1;fill:#54A832;enable-background:new ;} .st17{fill:none;stroke:#535461;stroke-width:2;stroke-miterlimit:10;} .st18{opacity:0.25;enable-background:new ;} .st19{opacity:0.2;fill:#54A832;enable-background:new ;} .st20{opacity:0.5;fill:#54A832;enable-background:new ;} .st21{fill:#FFD037;} .st22{fill:#444053;} .st23{fill:#9D9CB5;} .st24{fill:url(#SVGID_1_);} .st25{opacity:2.000000e-02;enable-background:new ;} .st26{fill:#EFB7B9;} .st27{fill:#FF6484;} .st28{fill:#925978;} .st29{opacity:0.1;} .st30{fill:url(#SVGID_2_);} .st31{fill:none;stroke:#54A832;stroke-miterlimit:10;} .st32{fill:#65617D;} </style> <g id="Calque_1" class="st0"> <g class="st1"> <rect x="497.2" y="231.8" class="st2" width="67.4" height="43.1"></rect> <rect x="392.2" y="299.2" class="st2" width="67.4" height="43.1"></rect> <path class="st3" d="M761.5,245.9v-91.7h-50.9V94.7h-34.5v59.5h-50.9v91.7H597v-206h-57.2V20.3h-76V0.7h-75.2v19.6h-71.3v19.6 h-61.9v205.3h-32.9v-91.7h-50.9V93.9h-34.5v59.5H86.2v91.7H53.3v325.1h75.2V455.1h51.7v115.2h202.1v-134h87.7v134h122.2v0.8h75.2 V455.9h51.7V571h75.2V245.9H761.5z M80.3,285.1h29.8v23.5H80.3V285.1z M80.7,350.9h29.8v23.5H80.7V350.9z M110.8,440.2H81.1v-23.5 h29.8V440.2z M188.8,227.9h-68.9v-14.1h68.9V227.9z M188.8,207.5h-68.9v-14.1h68.9V207.5z M188.8,187.1h-68.9V173h68.9V187.1z M198.6,285.1h29.8v23.5h-29.8V285.1z M199,350.9h29.8v23.5H199V350.9z M229.1,440.2h-29.8v-23.5h29.8V440.2z M351,401h-54.8 v-24.3H351V401z M351,331.3h-54.8V307H351V331.3z M351,261.6h-54.8v-24.3H351V261.6z M351,191.8h-54.8v-24.3H351V191.8z M351,122.1h-54.8V97.8H351V122.1z M453.6,401h-54.8v-24.3h54.8V401z M453.6,331.3h-54.8V307h54.8V331.3z M453.6,261.6h-54.8 v-24.3h54.8V261.6z M453.6,191.8h-54.8v-24.3h54.8V191.8z M453.6,122.1h-54.8V97.8h54.8V122.1z M556.2,401h-54.8v-24.3h54.8V401z M556.2,331.3h-54.8V307h54.8V331.3z M556.2,261.6h-54.8v-24.3h54.8V261.6z M556.2,191.8h-54.8v-24.3h54.8V191.8z M556.2,122.1 h-54.8V97.8h54.8V122.1z M619.3,285.9h29.8v23.5h-29.8V285.9z M619.7,351.7h29.8v23.5h-29.8V351.7z M649.9,441h-29.8v-23.5h29.8 V441z M727.8,228.7h-68.9v-14.1h68.9V228.7z M727.8,208.3h-68.9v-14.1h68.9V208.3z M727.8,187.9h-68.9v-14.1h68.9V187.9z M737.6,285.9h29.8v23.5h-29.8V285.9z M738,351.7h29.8v23.5H738V351.7z M768.2,441h-29.8v-23.5h29.8V441z"></path> <path class="st2" d="M99.6,490.9c-0.2,3.1-0.6,6.6-1.1,10.2l9.6-10.6l0.1,0.2c-0.6-2.6-1.5-5-2.8-7.3l0.1,0.2L99.6,490.9z"></path> <path class="st2" d="M99.7,490.3l5.6-7.1c-1.2-2.2-2.9-4-5-5.4c-0.1-0.1-0.2-0.1-0.3-0.2C100,478.5,100.1,483.5,99.7,490.3z"></path> <path class="st2" d="M94.6,518.4c-0.2,0.8-0.5,1.5-0.8,2.2l14.1-8.3l0,0.2c0.3-1.3,0.5-2.6,0.7-3.9L94.6,518.4L94.6,518.4z"></path> <path class="st2" d="M96.6,511.4l12.7-10.5l0,0.2c0-3.5-0.3-6.9-1.1-10.3l-9.8,10.8C97.9,505.1,97.3,508.3,96.6,511.4z"></path> <path class="st2" d="M98.2,501.5l-15.2-17l0.1-0.2c-1.4,2-2.7,4.2-3.6,6.4l17.3,18.5C97.4,506.5,97.9,503.9,98.2,501.5z"></path> <path class="st2" d="M79.3,491.1L79.3,491.1c0-0.1,0.1-0.1,0.1-0.2L79.3,491.1z"></path> <path class="st2" d="M78.5,493.2l-0.1,0.2C78.4,493.3,78.4,493.3,78.5,493.2L78.5,493.2z"></path> <path class="st2" d="M96.7,509.7l-17.4-18.5c-0.3,0.7-0.6,1.4-0.8,2.1l17.8,18.4C96.4,511,96.6,510.3,96.7,509.7z"></path> <path class="st2" d="M108.7,508.4c0.3-2.3,0.5-4.7,0.6-7L96.4,512c-0.5,2.1-1.1,4-1.7,5.9l14-9.7L108.7,508.4z"></path> <path class="st2" d="M76.1,509.7l14.1,18.4c1.2-2.2,2.2-4.5,3.1-6.9l-17.2-18.1c-0.2,2.3-0.2,4.5-0.1,6.8L76.1,509.7z"></path> <path class="st2" d="M99.7,477.7l0.1-0.1c-3.1-1.6-6.4-1.5-9.6,0.2l9.2,12.5C99.9,482.9,99.7,477.7,99.7,477.7z"></path> <path class="st2" d="M93.4,521.8c-0.8,2.1-1.7,4.2-2.8,6.2l14.2-7.3l0,0.2c1.1-1.8,1.9-3.7,2.5-5.8c0.2-0.8,0.4-1.6,0.6-2.4 l-14.3,8.4C93.5,521.4,93.5,521.6,93.4,521.8z"></path> <path class="st2" d="M99.4,490.9l-9.4-12.8l0.1-0.2c-2.7,1.6-5,3.7-6.8,6.3L98.3,501C98.8,497.4,99.2,494,99.4,490.9z"></path> <path class="st2" d="M93.5,520.8c1.1-2.9,1.9-5.8,2.7-8.8l-17.8-18.5c-0.4,1.2-0.8,2.4-1.2,3.6c-0.5,1.8-0.8,3.6-1,5.5L93.5,520.8 L93.5,520.8z"></path> <path class="st2" d="M111.8,540.7c-2.1,2.2-4.6,4.7-7.4,7.2l14.2-2.1l-0.1,0.2c1.2-2.3,2-4.8,2.5-7.4l-0.1,0.2L111.8,540.7z"></path> <path class="st2" d="M120.6,531.1c0-0.1-0.1-0.2-0.1-0.3c-0.5,0.7-3.6,4.6-8.3,9.6l8.9-1.9C121.5,536,121.4,533.4,120.6,531.1z"></path> <path class="st2" d="M90.4,558.7c-0.7,0.4-1.3,0.8-2,1.2l16.1,2.6l-0.1,0.2c1-0.8,2.1-1.6,3-2.5L90.4,558.7L90.4,558.7z"></path> <path class="st2" d="M96.3,554.6l16.5,0l-0.1,0.2c2.2-2.6,4.2-5.5,5.7-8.6l-14.4,2.1C101.4,550.6,98.9,552.7,96.3,554.6z"></path> <path class="st2" d="M90.8,558.4l17,1.4l-0.1,0.2c1.8-1.6,3.4-3.3,4.9-5.1l-16.7,0C94.1,556.2,92.4,557.4,90.8,558.4z"></path> <path class="st2" d="M70,566.8c0.1-0.1,0.2-0.3,0.4-0.4c3.5-0.6,6.8-1.5,10.1-2.9l0.5-12.2c0.1-0.3,0.3-0.6,0.4-0.9l-0.5,13 c2.3-1,4.6-2.1,6.8-3.4L86,537.3c0.1-0.1,0.2-0.1,0.4-0.2l1.6,22.7l0,0c2.6-1.5,5.2-3.2,7.6-5l-1.7-22.4c0.1-0.1,0.2-0.2,0.4-0.3 l1.7,22.4c0.5-0.4,1.1-0.8,1.6-1.2l-1.4-22.6c0.1-0.1,0.2-0.2,0.4-0.3l1.4,22.6c2.2-1.7,4.2-3.4,6-5.1l-0.9-22.8l0.2-0.1 c-0.6,0.2-1.3,0.4-1.9,0.6c1.2-1.4,2.3-2.9,3.3-4.5l-14.3,7.4c-1,1.9-2.1,3.7-3.3,5.4c-0.3,0.2-0.5,0.5-0.8,0.7l0,0.3 c-0.1,0.2-0.2,0.3-0.4,0.5l0-0.4c-0.2,0.2-0.4,0.4-0.5,0.6c1.8-2.3,3.4-4.7,4.7-7.3l-14-18.3c0.1,1.6,0.3,3.3,0.5,4.9 c-1.3-2.1-2.9-4-4.7-5.7l0.1,0.1l-3.2,8.8c0.7,3,1.5,6.4,2.1,10l5.7-12.9c0,0.2,0.1,0.4,0.1,0.6L70.9,529c0.6,3.4,1,6.7,1.2,9.9 L79,528c0,0.2,0.1,0.3,0.1,0.5l-7,10.9c0.2,2.1,0.2,4.2,0.2,6.2l8.4-11.1c0,0.1,0.1,0.3,0.1,0.4l-8.5,11.2l0-0.1 c0,0.8,0,1.6,0,2.3l9.5-10.7c0.1,0.1,0.1,0.3,0.1,0.4L72.4,549c0,0.2,0,0.5,0,0.7c-0.1,2.3-0.3,4.5-0.7,6.8l0.9-0.9 c-0.2,0.4-0.3,0.7-0.5,1.1l-0.5,0.5c-0.1,0.3-0.1,0.7-0.2,1c-0.2,0.4-0.4,0.8-0.6,1.2c0.2-0.8,0.3-1.5,0.5-2.3l-18.9-13 c4.9,12.6,14.3,24.7,14.8,25.4c0.5-0.9,0.9-1.8,1.3-2.8c0.1,0,0.2,0,0.4,0c0,0.1-0.1,0.2-0.1,0.3c-0.1,0-0.1,0-0.2,0 c0,0,0.1,0,0.2,0c-0.3,0.7-0.6,1.3-0.9,1.9c0.4-0.4,1-1,1.8-1.7c4.5,1.1,16.5,3.6,26.7,0l-15.7-3.4 C77.1,565.3,73.6,566.3,70,566.8z M81.1,546.9l0.4-0.4l0,0.6l-0.4,0.4L81.1,546.9z"></path> <path class="st2" d="M120.3,530.6l0.1,0c-1.3-3.2-4-5.2-7.5-6l-0.9,15.5C117.1,534.7,120.2,530.6,120.3,530.6z"></path> <path class="st2" d="M87.2,560.6c-2,1.1-4,2.1-6.1,3l15.6,3.4l-0.1,0.2c2-0.7,3.8-1.7,5.6-2.8c0.7-0.5,1.3-0.9,2-1.4l-16.3-2.7 C87.7,560.3,87.4,560.4,87.2,560.6z"></path> <path class="st2" d="M104.3,547.6c2.7-2.4,5.1-4.9,7.3-7.1l0.9-15.9l0.2-0.1c-3.1-0.5-6.2-0.4-9.2,0.5L104.3,547.6z"></path> <path class="st2" d="M71.7,509.3c-1.8-1.7-4-2.9-6.4-3.5c-0.1,0-0.2,0-0.3-0.1c0.3,0.8,2,5.5,3.6,12.1L71.7,509.3z"></path> <path class="st2" d="M70.7,528.8L51,517.4l0-0.2c-0.7,2.4-1.2,4.8-1.5,7.2l22.2,12.2C71.4,533.9,71.1,531.3,70.7,528.8z"></path> <path class="st2" d="M49.4,524.8L49.4,524.8c0-0.1,0-0.1,0-0.2L49.4,524.8z"></path> <path class="st2" d="M49.3,527.1l0,0.2C49.3,527.2,49.3,527.2,49.3,527.1L49.3,527.1z"></path> <path class="st2" d="M71.7,537.1l-22.3-12.2c-0.1,0.7-0.1,1.5-0.2,2.2l22.6,12C71.9,538.4,71.8,537.8,71.7,537.1z"></path> <path class="st2" d="M72.1,549.1l-21.9-11.9c0.5,2.2,1.2,4.4,2,6.5l0-0.2l19.1,13.1C71.7,554.2,72,551.7,72.1,549.1z"></path> <path class="st2" d="M64.7,505.7l0.1-0.1c-3.4-0.6-6.6,0.6-9.1,3.2l12.7,9.1C66.5,510.7,64.7,505.8,64.7,505.7z"></path> <path class="st2" d="M68.5,518.4l-12.9-9.3l0-0.2c-2.1,2.3-3.6,5.1-4.5,8.1l19.5,11.3C70,524.8,69.2,521.4,68.5,518.4z"></path> <path class="st2" d="M72.1,548.7c0.1-3.1,0.1-6.1-0.2-9.2l-22.7-12c0,1.2,0,2.5,0,3.8c0.1,1.9,0.3,3.7,0.8,5.5L72.1,548.7 L72.1,548.7z"></path> <path class="st2" d="M770.3,488.5c-0.2,3.1-0.6,6.6-1.1,10.2l9.6-10.6l0.1,0.2c-0.6-2.6-1.5-5-2.8-7.3l0.1,0.2L770.3,488.5z"></path> <path class="st2" d="M770.3,488l5.6-7.1c-1.2-2.2-2.9-4-5-5.4c-0.1-0.1-0.2-0.1-0.3-0.2C770.6,476.2,770.8,481.1,770.3,488z"></path> <path class="st2" d="M765.2,516c-0.2,0.8-0.5,1.5-0.8,2.2l14.1-8.3l0,0.2c0.3-1.3,0.5-2.6,0.7-3.9L765.2,516L765.2,516z"></path> <path class="st2" d="M767.2,509.1l12.7-10.5l0,0.2c0-3.5-0.3-6.9-1.1-10.3l-9.8,10.8C768.6,502.7,767.9,506,767.2,509.1z"></path> <path class="st2" d="M768.9,499.1l-15.2-17l0.1-0.2c-1.4,2-2.7,4.2-3.6,6.4l17.3,18.5C768,504.2,768.5,501.5,768.9,499.1z"></path> <path class="st2" d="M749.9,488.8L749.9,488.8c0-0.1,0.1-0.1,0.1-0.2L749.9,488.8z"></path> <path class="st2" d="M767.3,507.3l-17.4-18.5c-0.3,0.7-0.6,1.4-0.8,2.1l17.8,18.4C767,508.6,767.2,508,767.3,507.3z"></path> <path class="st2" d="M749.1,490.8L749,491C749,491,749.1,490.9,749.1,490.8L749.1,490.8z"></path> <path class="st2" d="M779.4,506.1c0.3-2.3,0.5-4.7,0.6-7l-12.9,10.6c-0.5,2.1-1.1,4-1.7,5.9l14-9.7L779.4,506.1z"></path> <path class="st2" d="M746.8,507.4l14.1,18.4c1.2-2.2,2.2-4.5,3.1-6.9l-17.2-18.1c-0.2,2.3-0.2,4.5-0.1,6.8L746.8,507.4z"></path> <path class="st2" d="M770.3,475.3l0.1-0.1c-3.1-1.6-6.4-1.5-9.6,0.2L770,488C770.5,480.5,770.3,475.4,770.3,475.3z"></path> <path class="st2" d="M764,519.5c-0.8,2.1-1.7,4.2-2.8,6.2l14.2-7.3l0,0.2c1.1-1.8,1.9-3.7,2.5-5.8c0.2-0.8,0.4-1.6,0.6-2.4 l-14.3,8.4C764.2,519,764.1,519.2,764,519.5z"></path> <path class="st2" d="M770,488.5l-9.4-12.8l0.1-0.2c-2.7,1.6-5,3.7-6.8,6.3l15.1,16.8C769.5,495,769.8,491.6,770,488.5z"></path> <path class="st2" d="M764.1,518.5c1.1-2.9,1.9-5.8,2.7-8.8l-17.8-18.5c-0.4,1.2-0.8,2.4-1.2,3.6c-0.5,1.8-0.8,3.6-1,5.5 L764.1,518.5L764.1,518.5z"></path> <path class="st2" d="M782.4,538.4c-2.1,2.2-4.6,4.7-7.4,7.2l14.2-2.1l-0.1,0.2c1.2-2.3,2-4.8,2.5-7.4l-0.1,0.2L782.4,538.4z"></path> <path class="st2" d="M791.2,528.7c0-0.1-0.1-0.2-0.1-0.3c-0.5,0.7-3.6,4.6-8.3,9.6l8.9-1.9C792.1,533.6,792,531.1,791.2,528.7z"></path> <path class="st2" d="M761,556.3c-0.7,0.4-1.3,0.8-2,1.2l16.1,2.6l-0.1,0.2c1-0.8,2.1-1.6,3-2.5L761,556.3L761,556.3z"></path> <path class="st2" d="M766.9,552.2l16.5,0l-0.1,0.2c2.2-2.6,4.2-5.5,5.7-8.6l-14.4,2.1C772.1,548.2,769.5,550.3,766.9,552.2z"></path> <path class="st2" d="M761.4,556.1l17,1.4l-0.1,0.2c1.8-1.6,3.4-3.3,4.9-5.1l-16.7,0C764.8,553.8,763.1,555,761.4,556.1z"></path> <path class="st2" d="M740.6,564.5c0.1-0.1,0.2-0.3,0.4-0.4c3.5-0.6,6.8-1.5,10.1-2.9l0.5-12.2c0.1-0.3,0.3-0.6,0.4-0.9l-0.5,13 c2.3-1,4.6-2.1,6.8-3.4l-1.6-22.7c0.1-0.1,0.2-0.1,0.4-0.2l1.6,22.7l0,0c2.6-1.5,5.2-3.2,7.6-5l-1.7-22.4c0.1-0.1,0.2-0.2,0.4-0.3 l1.7,22.4c0.5-0.4,1.1-0.8,1.6-1.2l-1.4-22.6c0.1-0.1,0.2-0.2,0.4-0.3l1.4,22.6c2.2-1.7,4.2-3.4,6-5.1l-0.9-22.8l0.2-0.1 c-0.6,0.2-1.3,0.4-1.9,0.6c1.2-1.4,2.3-2.9,3.3-4.5l-14.3,7.4c-1,1.9-2.1,3.7-3.3,5.4c-0.3,0.2-0.5,0.5-0.8,0.7l0,0.3 c-0.1,0.2-0.2,0.3-0.4,0.5l0-0.4c-0.2,0.2-0.4,0.4-0.5,0.6c1.8-2.3,3.4-4.7,4.7-7.3l-14-18.3c0.1,1.6,0.3,3.3,0.5,4.9 c-1.3-2.1-2.9-4-4.7-5.7l0.1,0.1l-3.2,8.8c0.7,3,1.5,6.4,2.1,10l5.7-12.9c0,0.2,0.1,0.4,0.1,0.6l-5.7,12.9c0.6,3.4,1,6.7,1.2,9.9 l6.9-10.8c0,0.2,0.1,0.3,0.1,0.5l-7,10.9c0.2,2.1,0.2,4.2,0.2,6.2l8.4-11.1c0,0.1,0.1,0.3,0.1,0.4l-8.5,11.2l0-0.1 c0,0.8,0,1.6,0,2.3l9.5-10.7c0.1,0.1,0.1,0.3,0.1,0.4l-9.7,10.9c0,0.2,0,0.5,0,0.7c-0.1,2.3-0.3,4.5-0.7,6.8l0.9-0.9 c-0.2,0.4-0.3,0.7-0.5,1.1l-0.5,0.5c-0.1,0.3-0.1,0.7-0.2,1c-0.2,0.4-0.4,0.8-0.6,1.2c0.2-0.8,0.3-1.5,0.5-2.3l-18.9-13 c4.9,12.6,14.3,24.7,14.8,25.4c0.5-0.9,0.9-1.8,1.3-2.8c0.1,0,0.2,0,0.4,0c0,0.1-0.1,0.2-0.1,0.3c-0.1,0-0.1,0-0.2,0 c0,0,0.1,0,0.2,0c-0.3,0.7-0.6,1.3-0.9,1.9c0.4-0.4,1-1,1.8-1.7c4.5,1.1,16.5,3.6,26.7,0l-15.7-3.4 C747.8,562.9,744.2,563.9,740.6,564.5z M751.7,544.5l0.4-0.4l0,0.6l-0.4,0.4L751.7,544.5z"></path> <path class="st2" d="M790.9,528.2l0.1,0c-1.3-3.2-4-5.2-7.5-6l-0.9,15.5C787.7,532.4,790.9,528.3,790.9,528.2z"></path> <path class="st2" d="M757.9,558.2c-2,1.1-4,2.1-6.1,3l15.6,3.4l-0.1,0.2c2-0.7,3.8-1.7,5.6-2.8c0.7-0.5,1.3-0.9,2-1.4l-16.3-2.7 C758.3,558,758.1,558.1,757.9,558.2z"></path> <path class="st2" d="M775,545.3c2.7-2.4,5.1-4.9,7.3-7.1l0.9-15.9l0.2-0.1c-3.1-0.5-6.2-0.4-9.2,0.5L775,545.3z"></path> <path class="st2" d="M742.3,506.9c-1.8-1.7-4-2.9-6.4-3.5c-0.1,0-0.2,0-0.3-0.1c0.3,0.8,2,5.5,3.6,12.1L742.3,506.9z"></path> <path class="st2" d="M741.3,526.5l-19.7-11.4l0-0.2c-0.7,2.4-1.2,4.8-1.5,7.2l22.2,12.2C742.1,531.5,741.7,528.9,741.3,526.5z"></path> <path class="st2" d="M719.9,524.7l0,0.2C719.9,524.9,719.9,524.8,719.9,524.7L719.9,524.7z"></path> <path class="st2" d="M720.1,522.5L720.1,522.5c0-0.1,0-0.1,0-0.2L720.1,522.5z"></path> <path class="st2" d="M742.4,534.7l-22.3-12.2c-0.1,0.7-0.1,1.5-0.2,2.2l22.6,12C742.5,536.1,742.4,535.4,742.4,534.7z"></path> <path class="st2" d="M742.7,546.8l-21.9-11.9c0.5,2.2,1.2,4.4,2,6.5l0-0.2l19.1,13.1C742.3,551.8,742.6,549.3,742.7,546.8z"></path> <path class="st2" d="M735.3,503.4l0.1-0.1c-3.4-0.6-6.6,0.6-9.1,3.2l12.7,9.1C737.1,508.3,735.3,503.5,735.3,503.4z"></path> <path class="st2" d="M739.1,516.1l-12.9-9.3l0-0.2c-2.1,2.3-3.6,5.1-4.5,8.1l19.5,11.3C740.6,522.4,739.8,519.1,739.1,516.1z"></path> <path class="st2" d="M742.7,546.4c0.1-3.1,0.1-6.1-0.2-9.2l-22.7-12c0,1.2,0,2.5,0,3.8c0.1,1.9,0.3,3.7,0.8,5.5L742.7,546.4 L742.7,546.4z"></path> <path class="st4" d="M53.3,570.2h741.1l0,0v10.6c0,9.3-7.5,16.8-16.8,16.8l0,0H70.1c-9.3,0-16.8-7.5-16.8-16.8c0,0,0,0,0,0V570.2 L53.3,570.2z"></path> <rect x="53.3" y="561.6" class="st5" width="741.1" height="14.9"></rect> <path class="st3" d="M627.6,52.4l8.5,5.4l-5.2-9.4c1.5-1.2,3.3-1.8,5.1-1.8c0,0,0.1,0,0.1,0c0.6,0,1.2,0,1.8-0.1l2.9,1.8l-1.2-2.2 c2-0.7,3.8-2.1,5-3.8l5.2,3.3l-3.3-5.9c3-3.6,7.1-5.8,11.6-5.8c5.4,0,10.2,3.2,13.2,8.2c1.9,3,5.2,4.8,8.8,4.7c0.1,0,0.2,0,0.3,0 c5.9,0,10.7,6.7,10.7,15s-4.8,15-10.7,15c-1.3,0-2.6-0.3-3.7-0.9c-4.1-2-8.8-2.1-13-0.3c-3.5,1.6-7.5,1.6-11,0 c-4.1-1.8-8.8-1.7-12.9,0.2c-1.1,0.6-2.4,0.9-3.7,0.9c-5.9,0-10.7-6.7-10.7-15C625.4,58.3,626.1,55.2,627.6,52.4z"></path> <path class="st3" d="M194.6,96.5l5.4,3.4l-3.3-6c0.9-0.7,2.1-1.2,3.3-1.2c0,0,0.1,0,0.1,0c0.4,0,0.8,0,1.1-0.1l1.8,1.2l-0.8-1.4 c1.3-0.5,2.4-1.3,3.2-2.4l3.3,2.1l-2.1-3.8c1.8-2.3,4.5-3.6,7.4-3.7c3.4,0,6.5,2,8.4,5.2c1.2,1.9,3.3,3.1,5.6,3c0.1,0,0.1,0,0.2,0 c3.8,0,6.8,4.3,6.8,9.5c0,5.3-3.1,9.5-6.8,9.5c-0.8,0-1.6-0.2-2.4-0.6c-2.6-1.3-5.6-1.3-8.3-0.2c-2.2,1-4.8,1-7,0 c-2.6-1.1-5.6-1.1-8.2,0.2c-0.7,0.4-1.5,0.6-2.4,0.6c-3.8,0-6.8-4.3-6.8-9.5C193.1,100.3,193.6,98.2,194.6,96.5z"></path> <path class="st3" d="M48.9,114.9l5.4,3.4l-3.3-6c0.9-0.7,2.1-1.2,3.3-1.2c0,0,0.1,0,0.1,0c0.4,0,0.8,0,1.1-0.1l1.8,1.2l-0.8-1.4 c1.3-0.5,2.4-1.3,3.2-2.4l3.3,2.1l-2.1-3.8c1.8-2.3,4.5-3.6,7.4-3.7c3.4,0,6.5,2,8.4,5.2c1.2,1.9,3.3,3.1,5.6,3c0.1,0,0.1,0,0.2,0 c3.8,0,6.8,4.3,6.8,9.5c0,5.3-3.1,9.5-6.8,9.5c-0.8,0-1.6-0.2-2.4-0.6c-2.6-1.3-5.6-1.3-8.3-0.2c-2.2,1-4.8,1-7,0 c-2.6-1.1-5.6-1.1-8.2,0.2c-0.7,0.4-1.5,0.6-2.4,0.6c-3.8,0-6.8-4.3-6.8-9.5C47.4,118.7,47.9,116.7,48.9,114.9z"></path> <path class="st2" d="M244.3,468.3l-0.9,0.9c0,0,0.3,10.4,0.6,12.6c0.3,2.2,1.6,6,0.6,8.8s-1.3,5-0.9,5.4s-0.3,1.6-0.3,1.6l2.5-1.6 l4.1-9.5l-1.9-10.1L244.3,468.3z"></path> <path class="st6" d="M244.3,468.3l-0.9,0.9c0,0,0.3,10.4,0.6,12.6c0.3,2.2,1.6,6,0.6,8.8s-1.3,5-0.9,5.4s-0.3,1.6-0.3,1.6l2.5-1.6 l4.1-9.5l-1.9-10.1L244.3,468.3z"></path> <path class="st2" d="M261.1,566.3c0,0,0-3.5-0.6-4.1s-1.6-2.8-2.8-2.8s-5.7,1.3-5.7,1.6c0,1-0.2,2-0.6,2.8 c-0.6,0.9-4.1,4.7-0.6,5.4c2.3,0.4,4.7-0.2,6.6-1.6c0.3-0.3,1.6-0.6,1.9-0.3S261.1,566.3,261.1,566.3z"></path> <path class="st2" d="M269.9,560.7l1.9,3.5c0,0,0.6,3.2,1.6,3.5h0.9c0,0,0.9,3.5,3.2,3.2c2.2-0.3,4.7-1.6,4.7-2.2 c0-0.6,0-2.5-0.9-3.2c-1.3-1.1-2.6-2.2-3.8-3.5l-1.6-1.6L269.9,560.7z"></path> <path class="st4" d="M245.7,445.2c-1.2,0.6-2.1,1.8-2.3,3.2c-0.2,2.3,2,4.4,1.3,6.5c-0.4,1.2-1.7,2-2,3.2c-0.2,1,0,2,0.4,2.9 c0.5,1.2,1.1,2.4,1.8,3.5c1.3,2.1,3.1,4.1,3.4,6.5c0.2,0.9,0,1.8-0.6,2.5c0.6-0.5,1.4-0.8,2.2-1c3.2-1.1,6.2-2.7,8.8-4.9 c0.9-0.7,1.7-1.6,2-2.7c0.5-1.9-1-3.9-0.8-5.9c0.1-1.3,0.8-2.4,1.2-3.6c0.7-2.4,0.4-5-0.8-7.3c-1-2.1-2.9-3.8-5.2-4.5 c-1.7-0.4-3.5-0.3-5.2,0.2C248.5,444.1,247.1,444.5,245.7,445.2z"></path> <path class="st2" d="M247.5,462.7c1.4-2.6,4.1-4.3,7.1-4.3c5,0,4.1-0.3,4.1-0.3l-1.6,6.3l-3.2,3.2L247.5,462.7z"></path> <path class="st7" d="M248.8,456c0,0,2.8,4.7,0.9,6.6s-0.9,3.8-0.6,4.1c0.3,0.3,9.1,0.9,9.1,0.9l0.3-4.4l0.9-3.8c0,0-5-0.9-4.4-3.2 C255.7,454.1,248.8,456,248.8,456z"></path> <path class="st6" d="M248.8,456c0,0,2.8,4.7,0.9,6.6s-0.9,3.8-0.6,4.1c0.3,0.3,9.1,0.9,9.1,0.9l0.3-4.4l0.9-3.8c0,0-5-0.9-4.4-3.2 C255.7,454.1,248.8,456,248.8,456z"></path> <path class="st7" d="M270.8,500.8c-0.3,1.1-0.8,2.1-1.3,3.2c-0.3,0.3-1.3-2.2-1.3-2.2l0.9-2.2L270.8,500.8z"></path> <polygon class="st7" points="267.2,486.4 268.5,493.7 249.5,493.7 250.5,486.4 "></polygon> <circle class="st7" cx="252.2" cy="452.5" r="6"></circle> <path class="st2" d="M253.5,464.8c0,0-3.5,0.3-3.5-0.3s-0.3-2.5-0.9-2.2c-0.6,0.3-4.7,0.6-4.4,1.6c0.3,0.9,0.9,2.8,0.3,2.8 c-1.1,0.2-1.8,1.3-1.6,2.4c0,0,0,0.1,0,0.1c0.3,1.6,3.8,11,3.8,11s0.3,3.2,1.3,4.1c0.8,1,0.8,2.4,0,3.5c-0.6,0.6,1.6,1.3,2.5,2.5 c0.9,1.3,8.2,0.3,8.5,0c0.3-0.3,7.9-0.3,8.5-0.9c0.6-0.6-0.3-2.5-0.3-2.5s-0.3-2.8,0-3.8c0.3-0.9-1.3-16.4-2.2-17.3 c-0.9-0.9,2.8-3.8,2.8-3.8s-0.6-2.5-4.7-2.8c0,0-1.3-1.9-2.5-1.9c-1.3,0-4,1.5-4,1.5s-0.7,4.2-1.7,4.5 C254.6,463.6,254,464.2,253.5,464.8z"></path> <path class="st2" d="M266.1,461l2.2,0.9c0,0,6.3,19.5,5.7,23.3c-0.6,3.8-2.2,16.7-3.2,16.7s-2.8-1.9-2.8-1.9V497 c0-0.6-0.9-2.5-0.3-2.5c0.6,0,1.6-0.6,0.9-1.3c-0.6-0.6-1.3-1.6-0.6-2.5s0.9-1.3,0.6-2.2c-0.3-0.9-0.9-1.9-0.3-2.5 c0.6-0.6-1.6-3.8-1.6-3.8l-3.5-13.9l0.6-5.7L266.1,461z"></path> <path class="st4" d="M267.4,491c0,0-12-0.9-13.6-0.9c-1.6,0-5.1-1.5-5.1-1.5s-9.1,9.1-5.9,23.9c3.2,14.8,3.8,33.1,5.7,38.5 c1.3,3.8,2.3,7.7,3.2,11.7c0,0,3.2-5.7,9.1,0.6c0,0,0.6-4.7-0.3-6.6c-0.9-1.9-2.2-12-2.2-12s-2.2-16.1-2.2-18s-1.3-18-0.9-18.3 c0.3-0.3,1.9,12.3,2.2,14.5c0.3,2.2,1.3,19.2,2.2,21.1c0.9,1.9,5.4,17,7.9,18c2.5,0.9,11-0.3,10.7-0.9c-0.3-0.6-2.5-4.1-3.2-5 l-2.5-3.8l-6-20.5l2.8-24.9C269.2,506.8,270.8,490.7,267.4,491z"></path> <path class="st4" d="M255.9,451.7h-7.7c-0.7,0-1.2-0.5-1.4-1.2l-0.8-4.8h12l-1.1,5.1C256.9,451.4,256.4,451.7,255.9,451.7z"></path> <path class="st4" d="M651.7,450.2h12.1l0,0v17.3l0,0l0,0c-6.7,0-12.1-5.4-12.1-12.1l0,0V450.2L651.7,450.2z"></path> <polygon class="st8" points="644.7,551.7 643.8,556 649.9,556 650.1,551.7 "></polygon> <path class="st2" d="M644.7,555.1c0,0-1.2-0.9-1.7-0.3c-0.6,0.6-2.6,11.8-2.9,12.1c-0.3,0.3-8.9,4.6-6.9,4.9s9.8,0.6,11,0 c1.2-0.6,4.3-6.1,4.3-6.1v4.9h0.6c0,0,0.6-5.2,2-6.6s-1.2-6.3-1.2-6.3s0.6-3.2,0.3-3.2C649.9,554.6,644.7,555.1,644.7,555.1z"></path> <polygon class="st8" points="662.6,548.6 661.7,553 667.7,553 668,548.6 "></polygon> <path class="st4" d="M655.6,520.5c0,0,2.9,8.7,3.5,9.5c0.6,0.9,2.6,17,2.6,17s-2,3.2,0.6,3.5c2.6,0.3,1.4-0.6,3.2,0 c1,0.4,2,0.3,2.9-0.3c0,0,0.9-1.7,0.3-2.3c-0.6-0.6,0.6-15.6,0.6-15.6l-1.7-5.2l-1.4-16.4c0,0,1.7-4.3,0.9-5.5 c-0.9-1.2-3.8,0.9-3.8,0.9L655.6,520.5z"></path> <path class="st4" d="M651.9,498c0,0-0.9,9.2-1.4,9.8c-0.6,0.6-6.9,16.7-6.9,16.7s-1.7,2-1.2,9.5c0.6,7.5,2,15,2,15 s-1.2,4.3,0.9,4.3c2,0,2.9-1.2,3.8-0.3c0.9,0.9,1.4,0,1.7-0.6c0.3-0.6,1.4-2.6,1.4-3.2c0-0.6,1.2-15.3,1.2-15.3 s9.5-21.1,10.4-22.2s5.8-7.5,5.5-11.8L651.9,498z"></path> <circle class="st8" cx="659.1" cy="453" r="6.1"></circle> <path class="st8" d="M657.9,458.2c0,0,2.3,5.2,2.6,6.6c0.3,1.4,5.8-2.9,5.8-2.9s-2.9-4.9-2-7.2L657.9,458.2z"></path> <path class="st5" d="M667.2,461.1c0,0-4.3-3.2-7.5,3.5c-3.2,6.6-4,6.3-4,6.3s-3.8,1.2-2.6,9.2s-3.8,18.8-1.7,19.3 s20.8,3.8,20.8,1.4c0-2.3-1.7-11.3-0.3-16.7C673.2,478.7,669.8,459.6,667.2,461.1z"></path> <path class="st5" d="M662.8,462.5c0,0-3.5,5.2-3.2,9.2s0.3,6.6,0.3,6.6s-5.8,27.7-4.6,27.7s4.6,1.4,4.9,0.6 c0.3-0.9,7.5-18.5,7.5-18.5s1.7-17.6-0.3-21.6C665.4,462.5,662.8,462.5,662.8,462.5z"></path> <path class="st8" d="M655.9,505.2c0,0-2.9,9.8,1.2,10.1c4,0.3,1.7-9.5,1.7-9.5L655.9,505.2z"></path> <path class="st2" d="M663.6,550.7c0,0-1-0.8-1.5-0.3c-0.5,0.5-2.3,10.4-2.5,10.6c-0.3,0.3-7.8,4-6.1,4.3c1.8,0.3,8.6,0.5,9.6,0 c1-0.5,3.8-5.3,3.8-5.3v4.3h0.5c0,0,0.5-4.5,1.8-5.8c1.3-1.3-1-5.6-1-5.6s0.5-2.8,0.3-2.8C668.1,550.2,663.6,550.7,663.6,550.7z"></path> <path class="st4" d="M656.1,449c0.2-0.2,0.4-0.4,0.7-0.5c0.3,0,0.5,0,0.8,0.1c1.8,0.5,3.4,1.7,4.4,3.2c0.2,0.4,0.5,0.7,0.9,1 c0.2,0.1,0.5,0.2,0.7,0.3c0.7,0.4,0.3,1.5-0.1,2.2c-1,1.8-1.5,3.9-1.3,6c0,0.4,0.1,0.7,0.3,1c0.3,0.3,0.8,0.5,1.2,0.5 c1.4,0.2,2.8,0.3,4.2,0.2c1.4,0,2.9-0.2,3.8-1.3c1-1.1,0.8-2.9,0.2-4.2s-1.6-2.5-2.4-3.8c-0.7-1.4-1.2-2.8-1.6-4.3 c-0.5-1.9-1.3-3.7-2.4-5.3c-1.1-1.6-2.8-2.8-4.8-3.1c-2.6-0.3-5,1.3-7.1,2.9c-2.4,1.8-4.9,4-5.1,6.9c-0.2,2.4,1.3,4.6,2,6.8 c1.2,3.5,0.7,7.3,0.2,11c2.1-1.3,4.6-3.1,4.4-5.5c-0.1-1.7-1.4-3-2.1-4.5C650.9,454.5,653.4,451.8,656.1,449z"></path> <path class="st5" d="M741.3,478.5c1.8-3.2,2.8-6.8,2.7-10.5c0-9.5-5.9-17.2-13.2-17.2c-7.3,0-13.2,7.7-13.2,17.2 c0,3.7,0.9,7.3,2.7,10.5c-3.7,6.5-3.7,14.5,0,21c-3.7,6.5-3.7,14.5,0,21c-3.7,6.5-3.7,14.5,0,21c-1.8,3.2-2.8,6.8-2.7,10.5 c0,9.5,5.9,17.2,13.2,17.2c7.3,0,13.2-7.7,13.2-17.2c0-3.7-0.9-7.3-2.7-10.5c3.7-6.5,3.7-14.5,0-21c3.7-6.5,3.7-14.5,0-21 C745,493,745,485,741.3,478.5z"></path> <ellipse class="st5" cx="730.9" cy="446.9" rx="13.2" ry="17.2"></ellipse> <ellipse class="st5" cx="730.9" cy="425.9" rx="13.2" ry="17.2"></ellipse> <path class="st3" d="M780.1,281.9c1.8-2.3,3.4-4.7,4.9-7.2l-34.6-5.7l37.4,0.3c7.2-15.8,7.7-33.8,1.2-49.9l-50.1,26l46.2-34 c-17.4-30.1-56-40.4-86.1-23c-30.1,17.4-40.4,56-23,86.1c1.5,2.6,3.2,5.1,5,7.4c-2.8,3.6-5.2,7.4-7.2,11.5l44.9,23.3L671,300.7 c-6.8,20.2-3,42.4,10.2,59.2c-21.5,27.3-16.8,66.9,10.6,88.5c27.3,21.5,66.9,16.8,88.5-10.6c18-22.9,18-55,0-77.9 C798.1,337,798.1,304.8,780.1,281.9L780.1,281.9z"></path> <path class="st3" d="M667.6,320.9c0,14.1,4.7,27.9,13.5,38.9c-21.5,27.3-16.8,66.9,10.6,88.5c27.3,21.5,66.9,16.8,88.5-10.6 c18-22.9,18-55,0-77.9C788.6,349.1,667.6,313.8,667.6,320.9z"></path> <path class="st9" d="M780.1,281.9c1.8-2.3,3.4-4.7,4.9-7.2l-34.6-5.7l37.4,0.3c7.2-15.8,7.7-33.8,1.2-49.9l-50.1,26l46.2-34 c-17.4-30.1-56-40.4-86.1-23c-30.1,17.4-40.4,56-23,86.1c1.5,2.6,3.2,5.1,5,7.4c-2.8,3.6-5.2,7.4-7.2,11.5l44.9,23.3L671,300.7 c-6.8,20.2-3,42.4,10.2,59.2c-21.5,27.3-16.8,66.9,10.6,88.5c27.3,21.5,66.9,16.8,88.5-10.6c18-22.9,18-55,0-77.9 C798.1,337,798.1,304.8,780.1,281.9L780.1,281.9z"></path> <path class="st6" d="M667.6,320.9c0,14.1,4.7,27.9,13.5,38.9c-21.5,27.3-16.8,66.9,10.6,88.5c27.3,21.5,66.9,16.8,88.5-10.6 c18-22.9,18-55,0-77.9C788.6,349.1,667.6,313.8,667.6,320.9z"></path> <path class="st5" d="M79.3,478.5c1.8-3.2,2.8-6.8,2.7-10.5c0-9.5-5.9-17.2-13.2-17.2s-13.2,7.7-13.2,17.2c0,3.7,0.9,7.3,2.7,10.5 c-3.7,6.5-3.7,14.5,0,21c-3.7,6.5-3.7,14.5,0,21c-3.7,6.5-3.7,14.5,0,21c-1.8,3.2-2.8,6.8-2.7,10.5c0,9.5,5.9,17.2,13.2,17.2 S82,561.7,82,552.2c0-3.7-0.9-7.3-2.7-10.5c3.7-6.5,3.7-14.5,0-21c3.7-6.5,3.7-14.5,0-21C83,493,83,485,79.3,478.5z"></path> <ellipse class="st5" cx="68.9" cy="446.9" rx="13.2" ry="17.2"></ellipse> <ellipse class="st5" cx="68.9" cy="425.9" rx="13.2" ry="17.2"></ellipse> <path class="st3" d="M118.1,281.9c1.8-2.3,3.4-4.7,4.9-7.2L88.5,269l37.4,0.3c7.2-15.8,7.7-33.8,1.2-49.9l-50.1,26l46.2-34 c-17.4-30.1-56-40.4-86.1-23s-40.4,56-23,86.1c1.5,2.6,3.2,5,5,7.4c-2.8,3.6-5.2,7.4-7.2,11.5l44.9,23.3L8.9,300.7 c-6.8,20.2-3,42.4,10.2,59.2c-21.5,27.3-16.8,66.9,10.6,88.5c27.3,21.5,66.9,16.8,88.5-10.6c18-22.9,18-55,0-77.9 C136.1,337,136.1,304.8,118.1,281.9L118.1,281.9z"></path> <path class="st3" d="M5.6,320.9c0,14.1,4.7,27.9,13.5,38.9c-21.5,27.3-16.8,66.9,10.6,88.5c27.3,21.5,66.9,16.8,88.5-10.6 c18-22.9,18-55,0-77.9C126.6,349.1,5.6,313.8,5.6,320.9z"></path> <path class="st9" d="M118.1,281.9c1.8-2.3,3.4-4.7,4.9-7.2L88.5,269l37.4,0.3c7.2-15.8,7.7-33.8,1.2-49.9l-50.1,26l46.2-34 c-17.4-30.1-56-40.4-86.1-23s-40.4,56-23,86.1c1.5,2.6,3.2,5,5,7.4c-2.8,3.6-5.2,7.4-7.2,11.5l44.9,23.3L8.9,300.7 c-6.8,20.2-3,42.4,10.2,59.2c-21.5,27.3-16.8,66.9,10.6,88.5c27.3,21.5,66.9,16.8,88.5-10.6c18-22.9,18-55,0-77.9 C136.1,337,136.1,304.8,118.1,281.9L118.1,281.9z"></path> <path class="st6" d="M5.6,320.9c0,14.1,4.7,27.9,13.5,38.9c-21.5,27.3-16.8,66.9,10.6,88.5c27.3,21.5,66.9,16.8,88.5-10.6 c18-22.9,18-55,0-77.9C126.6,349.1,5.6,313.8,5.6,320.9z"></path> <polygon class="st9" points="459.6,278.5 428.3,309.7 413.5,294.9 407.8,300.7 428.3,321.2 465.3,284.2 "></polygon> <polygon class="st9" points="559.1,207.2 527.8,238.4 513,223.6 507.3,229.4 527.8,249.9 564.8,212.9 "></polygon> </g> </g> <g id="Calque_3"> <g> <path class="st3" d="M53.8,407.2c-3.8,0-7.6,0.2-11.3,0.5l-0.5,0C17.3,409.9-0.7,422.5,0,437.1l0.1,2.6c0.1,1.7,0.2,3.5,0.3,5.4 c0,1,1.4,1.7,3,1.7h605.8c42.7-0.3,85.3-0.6,126.5-1c7.7,0,15.5-0.4,23.1-1.2c11.5-1.4,19.4-4,24.3-8.2h0c6.1-5.2,6.3-11.7,5.9-19 c-0.8-14.9-1.5-30.5-2.2-46c-0.7-13.7-1.3-27.4-2-40.5c-0.4-7.8-1.3-14.6-8.2-19.9c-7.5-5.7-21.2-8.5-40.7-8.5c-0.2,0-0.5,0-0.7,0 c-61.1,0.2-121.6,21.2-150.6,52.2c-3.3,3.6-6.4,7.4-9.5,11.1c-4.4,5.5-9,11.1-14.5,16.2c-3,2.8-6.2,5.3-9.6,7.5 c-0.2,0.2-0.5,0.3-0.8,0.5c-0.7,0.4-1.3,0.8-2,1.2c-3.9,2.2-8,4.1-12.2,5.6l-0.4,0.1c-0.3,0.1-0.7,0.2-1,0.3c-2.5,0.8-5,1.5-7.6,2 c-11,2.4-23.6,3-37.3,1.7c-12.6-1.2-25.1-3.7-37.1-7.6c-12.7-4-24.6-9-36.1-13.9c-5.1-2.1-10.3-4.3-15.5-6.4 c-1-0.4-1.9-0.8-2.9-1.2c-6.4-2.5-12.2-4.5-17.7-6.3c-13.7-4.3-27.8-6.9-42.1-7.8c-15.2-0.8-28.6,0.7-39.8,4.7 c-3.1,1.1-6.1,2.4-9,3.9c-13.3,6.9-21.4,17.1-29.3,26.9c-9.8,12.2-20,24.9-40.1,31.4c-23.2,7.6-57,4.4-80.9-1 c-7.5-1.7-15-3.7-22.3-5.6c-2.9-0.8-5.9-1.5-8.8-2.3c-5.8-1.5-10.5-2.6-14.9-3.6l-1.4-0.3c-0.8-0.2-1.5-0.3-2.3-0.5 c-5.2-1.1-10-1.9-14.8-2.6l-1.1-0.2c-2.3-0.3-4.4-0.5-6.4-0.8l-0.8-0.1C62.2,407.4,58,407.2,53.8,407.2z"></path> <path class="st10" d="M680.2,423.4c17-15.4,42.4-23.1,63.7-14.5c-21.8,12.1-38.6,31.5-47.5,54.9c-3.4,9-6.2,19.4-14.5,24.2 c-5.2,3-11.6,3.1-17.4,1.7c-5.8-1.4-11.1-4.4-16.4-7.2l-1.5,0C653.2,460.5,663.1,438.8,680.2,423.4z"></path> <path class="st11" d="M743.7,409.4c-18.8,2.4-36.4,10.7-50.3,23.7c-3,2.7-5.6,6-7.6,9.5c-1.9,3.5-2.8,7.5-2.6,11.5 c0.1,3.7,0.6,7.5-0.2,11.2c-0.9,3.8-3.4,7-6.8,8.9c-4.2,2.4-8.9,3.1-13.6,3.7c-5.2,0.6-10.6,1.2-15.1,4.1 c-0.5,0.4-1.1-0.5-0.5-0.9c7.8-5.1,17.8-3.2,26.2-6.6c3.9-1.6,7.4-4.4,8.7-8.6c1.1-3.7,0.5-7.6,0.4-11.3 c-0.2-3.9,0.5-7.8,2.1-11.3c1.8-3.6,4.3-6.9,7.2-9.8c6.5-6.5,14.1-11.8,22.3-15.9c9.4-4.7,19.4-7.9,29.8-9.2 C744.3,408.3,744.3,409.3,743.7,409.4L743.7,409.4z"></path> <path class="st11" d="M697.6,428.7c-3.9-5.4-3.2-12.8,1.5-17.5c0.5-0.5,1.2,0.2,0.7,0.7c-4.4,4.3-5,11.3-1.4,16.3 C698.9,428.7,698,429.2,697.6,428.7L697.6,428.7z"></path> <path class="st11" d="M682.9,452.3c6.5,1.1,13.1-0.2,18.7-3.7c0.5-0.4,1.1,0.5,0.5,0.9c-5.8,3.7-12.7,5.1-19.4,3.9 C682,453.1,682.3,452.1,682.9,452.3z"></path> <path class="st11" d="M723.3,414.2c1,2.4,3.2,4,5.7,4.5c0.6,0.1,0.4,1.1-0.2,1c-2.8-0.5-5.2-2.3-6.4-4.9c-0.1-0.2-0.1-0.5,0.2-0.7 C722.8,413.9,723.1,414,723.3,414.2L723.3,414.2z"></path> <path class="st10" d="M767.2,483c-0.4-0.1-0.8-0.1-1.2-0.2c-5.4-0.7-10.9-1-16.4-0.8c-0.4,0-0.9,0-1.3,0 c-13.2,0.5-26.1,3.5-38.2,8.8c-4.8,2.1-9.4,4.6-13.9,7.4c-6.1,3.9-12.5,8.6-19.3,10.1c-0.7,0.2-1.4,0.3-2.2,0.4l-28.3-24.5 c0-0.1-0.1-0.2-0.1-0.3l-1.2-0.9c0.2-0.2,0.4-0.3,0.7-0.5c0.1-0.1,0.3-0.2,0.4-0.3c0.1-0.1,0.2-0.1,0.2-0.2c0,0,0.1,0,0.1-0.1 c0.1-0.1,0.1-0.1,0.2-0.2c1.3-0.9,2.6-1.8,3.9-2.7c0,0,0,0,0,0c9.8-6.9,20.5-12.6,31.7-17c0.3-0.1,0.7-0.3,1-0.4 c5-1.9,10.2-3.3,15.5-4.4c2.9-0.6,5.8-1,8.7-1.2c7.6-0.7,15.2-0.1,22.6,1.6c14.8,3.4,28.3,11.5,36.3,24.2 C766.8,482.4,767,482.7,767.2,483z"></path> <path class="st11" d="M766.9,483.3c-16.5-9.4-35.5-13.4-54.4-11.3c-4.1,0.4-8.1,1.4-11.8,3c-3.6,1.7-6.7,4.3-9,7.6 c-2.2,3-4,6.4-6.9,8.8c-3,2.5-6.9,3.6-10.8,3c-4.8-0.6-9-2.9-13.1-5.2c-4.5-2.6-9.2-5.4-14.6-5.8c-0.6,0-0.5-1.1,0.1-1 c9.3,0.7,16.1,8.1,24.9,10.5c4.1,1.1,8.6,1,12.1-1.6c3.1-2.3,5-5.7,7.2-8.8c2.2-3.2,5.1-5.9,8.5-7.8c3.7-1.8,7.6-3,11.7-3.4 c9.1-1.2,18.4-1,27.4,0.7c10.3,1.8,20.3,5.4,29.4,10.6C768,482.8,767.4,483.7,766.9,483.3L766.9,483.3z"></path> <path class="st11" d="M718.5,471c0.2-6.6,5.1-12.2,11.7-13.1c0.6-0.1,0.8,0.9,0.2,1c-6.1,0.8-10.7,6-10.9,12.2 C719.5,471.8,718.5,471.7,718.5,471L718.5,471z"></path> <path class="st11" d="M692.6,480.9c4.5,4.8,10.6,7.8,17.2,8.3c0.6,0,0.5,1.1-0.1,1c-6.8-0.5-13.2-3.6-17.8-8.6 C691.3,481.1,692.1,480.5,692.6,480.9z"></path> <path class="st11" d="M747.7,474.9c-0.6,2.5,0.1,5.2,1.9,7c0.4,0.5-0.3,1.1-0.8,0.6c-1.9-2.1-2.7-5-2.1-7.8c0-0.3,0.3-0.5,0.6-0.4 C747.5,474.3,747.7,474.6,747.7,474.9L747.7,474.9z"></path> <path class="st10" d="M234,438.7c14-21.2,38.9-36.5,64.1-33.2c-20,19-32.6,44.5-35.5,71.9c-1.1,10.6-1.3,22.5-8.8,29.9 c-4.7,4.7-11.6,6.6-18.2,6.7c-6.6,0.1-13.1-1.6-19.5-3.2l-1.6,0.4C215.4,485.9,220,459.9,234,438.7z"></path> <path class="st11" d="M298,406.1c-19.5,7.8-36,21.6-47.2,39.4c-2.5,3.8-4.3,7.9-5.5,12.3c-1,4.3-0.9,8.8,0.4,13 c1.1,3.9,2.7,7.9,2.9,12c0.1,4.3-1.7,8.4-4.8,11.4c-3.8,3.7-8.7,5.9-13.5,7.8c-5.4,2.1-11,4.3-15,8.6c-0.5,0.5-1.3-0.3-0.8-0.8 c7-7.6,18.1-8.4,26.2-14.4c3.8-2.8,6.7-6.7,6.9-11.6c0.1-4.2-1.5-8.3-2.7-12.2c-1.3-4.1-1.6-8.4-0.9-12.7c1-4.4,2.7-8.6,5-12.5 c5.2-8.7,11.7-16.6,19.4-23.3c8.7-7.7,18.6-13.8,29.4-18.2C298.4,404.7,298.7,405.8,298,406.1L298,406.1z"></path> <path class="st11" d="M254.1,439.5c-5.6-4.7-7-12.8-3.3-19.1c0.4-0.6,1.3-0.1,1,0.5c-3.5,5.9-2.2,13.4,3.1,17.8 C255.5,439.2,254.7,440,254.1,439.5L254.1,439.5z"></path> <path class="st11" d="M244.9,468.8c7.2-0.6,14-3.9,18.9-9.2c0.5-0.5,1.3,0.3,0.8,0.8c-5.1,5.5-12.2,8.9-19.7,9.5 C244.2,469.9,244.2,468.8,244.9,468.8L244.9,468.8z"></path> <path class="st11" d="M277.5,416.9c1.8,2.2,4.5,3.4,7.4,3.2c0.7-0.1,0.7,1.1,0,1.1c-3.1,0.3-6.2-1.1-8.2-3.5 c-0.2-0.2-0.2-0.6,0-0.8C276.9,416.6,277.3,416.6,277.5,416.9L277.5,416.9z"></path> <path class="st10" d="M343.7,478.2c-0.4,0.1-0.9,0.1-1.3,0.2c-6,0.7-11.9,2-17.7,3.7c-0.5,0.1-0.9,0.3-1.4,0.4 c-13.9,4.2-27,11-38.4,20c-4.6,3.6-8.8,7.5-12.8,11.7c-5.5,5.8-10.9,12.6-17.8,16.2c-0.7,0.4-1.5,0.7-2.2,1l-37.1-18.3 c-0.1-0.1-0.1-0.2-0.2-0.2l-1.5-0.7c0.2-0.2,0.4-0.5,0.6-0.7c0.1-0.1,0.2-0.3,0.3-0.4c0.1-0.1,0.2-0.2,0.2-0.3 c0,0,0.1-0.1,0.1-0.1c0.1-0.1,0.1-0.2,0.2-0.2c1.1-1.3,2.3-2.7,3.4-4c0,0,0,0,0,0c8.7-10,18.4-19.4,29.1-27c0.3-0.2,0.7-0.5,1-0.7 c4.9-3.4,10-6.4,15.4-9c2.9-1.4,5.9-2.6,9-3.7c7.9-2.8,16.2-4.4,24.7-4.6c16.8-0.4,33.5,4.5,45.6,15.8 C343.1,477.6,343.4,477.9,343.7,478.2z"></path> <path class="st11" d="M343.4,478.7c-20.3-5.5-41.7-4.4-61.4,3c-4.3,1.5-8.2,3.7-11.8,6.5c-3.4,2.8-6,6.5-7.5,10.6 c-1.5,3.8-2.5,7.9-4.9,11.3c-2.5,3.5-6.4,5.7-10.7,6.2c-5.3,0.7-10.5-0.6-15.5-1.9c-5.6-1.5-11.4-3.2-17.2-2.2 c-0.7,0.1-0.9-1-0.2-1.1c10.2-1.9,19.5,4.2,29.6,4.3c4.7,0,9.4-1.3,12.5-5.1c2.7-3.3,3.8-7.5,5.2-11.4c1.4-4.1,3.8-7.7,6.9-10.7 c3.4-2.9,7.3-5.3,11.5-6.9c9.4-3.8,19.4-6.2,29.5-6.9c11.6-0.9,23.2,0.2,34.4,3.2C344.5,477.8,344,478.8,343.4,478.7L343.4,478.7z "></path> <path class="st11" d="M288.2,478.9c-1.7-7.2,2.1-14.4,8.9-17.2c0.7-0.3,1.1,0.8,0.5,1c-6.3,2.6-9.8,9.4-8.2,16 C289.4,479.5,288.3,479.6,288.2,478.9L288.2,478.9z"></path> <path class="st11" d="M263.2,496.8c6.1,3.9,13.5,5.4,20.6,4.1c0.7-0.1,0.9,1,0.2,1.1c-7.4,1.3-15.1-0.2-21.5-4.3 C261.9,497.3,262.6,496.4,263.2,496.8z"></path> <path class="st11" d="M320.5,474.9c0.1,2.9,1.6,5.5,4,7c0.6,0.4-0.1,1.3-0.7,0.9c-2.7-1.7-4.3-4.6-4.4-7.7c0-0.3,0.2-0.6,0.5-0.6 C320.2,474.4,320.4,474.6,320.5,474.9z"></path> <path class="st12" d="M333.3,280c3.5-3.5,3.5-9.1,0-12.6c-0.4-0.4-0.8-0.7-1.2-1l14.6-70.6l-15.7,5L319.2,269 c-2.6,4.2-1.2,9.8,3,12.3C325.8,283.5,330.4,282.9,333.3,280L333.3,280z"></path> <path class="st10" d="M367,91.3l-9.7-7.4c0,0-8.6-0.6-10.1,14.9c-1.5,15.5-11.1,75-11.1,75L321.2,243l20.6,4.5l16-74.6l16-51.4 L367,91.3z"></path> <path class="st5" d="M359.6,219.1l-46.8-36.4c-1.5-1.2-1.8-3.4-0.6-4.9L344,137c1.2-1.5,3.4-1.8,4.9-0.6l46.8,36.4 c1.5,1.2,1.8,3.4,0.6,4.9l-31.8,40.9C363.3,220,361.1,220.3,359.6,219.1z"></path> <path class="st11" d="M359.3,215.4l-42.8-33.3c-1.3-1-1.6-3-0.5-4.3l28.8-37.1c1-1.3,3-1.6,4.3-0.5l42.8,33.3c1.3,1,1.6,3,0.5,4.3 l-28.8,37.1C362.6,216.2,360.7,216.4,359.3,215.4z"></path> <path class="st13" d="M322.1,181.2c-0.3-0.3-0.4-0.7-0.1-1.1l14.6-18.7c0.3-0.3,0.7-0.4,1.1-0.1c0.3,0.3,0.4,0.7,0.1,1.1l0,0 L323.2,181C323,181.4,322.5,181.4,322.1,181.2z"></path> <path class="st13" d="M324.6,183c-0.3-0.3-0.4-0.7-0.1-1.1l14.6-18.7c0.3-0.3,0.7-0.4,1.1-0.1c0.3,0.3,0.4,0.7,0.1,1.1l-14.6,18.7 C325.4,183.2,324.9,183.3,324.6,183z"></path> <path class="st13" d="M335.2,174.3c-0.3-0.3-0.4-0.7-0.1-1.1l6.3-8.1c0.3-0.3,0.7-0.4,1.1-0.1c0.3,0.3,0.4,0.7,0.1,1.1l0,0 l-6.3,8.1C336,174.5,335.5,174.6,335.2,174.3z"></path> <path class="st13" d="M338.5,190.2c-0.3-0.3-0.4-0.7-0.1-1.1l23-29.5c0.3-0.3,0.7-0.4,1.1-0.1c0.3,0.3,0.4,0.7,0.1,1.1l0,0 l-23,29.5C339.3,190.4,338.8,190.5,338.5,190.2z"></path> <path class="st13" d="M340.9,192.1c-0.3-0.3-0.4-0.7-0.1-1.1l23-29.5c0.3-0.3,0.7-0.4,1.1-0.1c0.3,0.3,0.4,0.7,0.1,1.1L342,192 C341.7,192.3,341.2,192.4,340.9,192.1z"></path> <path class="st13" d="M346.3,196.4c-0.3-0.3-0.4-0.7-0.1-1.1l23-29.5c0.3-0.3,0.7-0.4,1.1-0.1c0.3,0.3,0.4,0.7,0.1,1.1l-23,29.5 C347.2,196.6,346.7,196.6,346.3,196.4z"></path> <path class="st13" d="M348.8,198.2c-0.3-0.3-0.4-0.7-0.1-1.1l23-29.5c0.3-0.3,0.7-0.4,1.1-0.1c0.3,0.3,0.4,0.7,0.1,1.1l-23,29.5 C349.6,198.4,349.1,198.5,348.8,198.2z"></path> <path class="st13" d="M354.2,202.5c-0.3-0.3-0.4-0.7-0.1-1.1l23-29.5c0.3-0.3,0.7-0.4,1.1-0.1c0.3,0.3,0.4,0.7,0.1,1.1l0,0 l-23,29.5C355.1,202.7,354.6,202.7,354.2,202.5z"></path> <path class="st13" d="M356.6,204.4c-0.3-0.3-0.4-0.7-0.1-1.1l23-29.5c0.3-0.3,0.7-0.4,1.1-0.1c0.3,0.3,0.4,0.7,0.1,1.1l-23,29.5 C357.5,204.6,357,204.6,356.6,204.4z"></path> <circle class="st11" cx="318.2" cy="238.4" r="0.3"></circle> <path class="st4" d="M364.5,20c-1.1,6-2.9,11.8-5.5,17.4c-14.3,30.4,26.5,20.5,41.1,20.5c16,0,31.2,8.4,28.9-28.9 C428.1,13,416.1,0,400.2,0C386.5,0,367.4,6.1,364.5,20z"></path> <polygon class="st12" points="415,465.2 401.4,465.2 395,412.7 415,412.7 "></polygon> <path class="st4" d="M422.2,488.7h-9.8l-1.7-9.2l-4.5,9.2h-25.9c-3.2,0-5.8-2.6-5.8-5.8c0-1.9,0.9-3.7,2.5-4.8l20.7-14.3v-9.3 l21.7,1.3L422.2,488.7z"></path> <polygon class="st12" points="495.9,448 485,456.1 448.4,417.9 464.6,405.9 "></polygon> <path class="st4" d="M515.7,462.6l-7.8,5.8l-6.9-6.4l1.9,10.1l-20.8,15.4c-2.6,1.9-6.2,1.4-8.1-1.2c-1.1-1.5-1.5-3.5-0.8-5.3 l8.1-23.8l-5.6-7.5l18.2-11.9L515.7,462.6z"></path> <polygon class="st12" points="370.5,223.7 435.1,213.6 422.2,175 370.5,175 "></polygon> <path class="st4" d="M430.9,194.4c0,0,25.8,22.3,13.9,85.9l-14.5,62.3l39.6,68.8l-20.1,11l-48.8-67.8l-22.3-52.4l-11.8-91.8 L430.9,194.4z"></path> <polygon class="st4" points="390.9,317.1 389.3,341.1 393.9,412.3 416.4,420.1 420.7,347.1 "></polygon> <path class="st10" d="M383.9,65.8l25,1l9.9,16.5l22.7,4.4L428,156.3l2.5,39l-22.6-0.1c-16.3-0.1-32,5.8-44.2,16.6l0,0l0.7-50.6 l-9.7-37.8l2.2-39.6l18.3-2.3L383.9,65.8z"></path> <circle class="st12" cx="397.8" cy="34.3" r="23.5"></circle> <path class="st4" d="M381.8,10.4c12.7-7.7,29.2-3.7,37,9c2.7,4.4,4,9.4,3.9,14.5c-12,3-24.5,5.3-37.3,0.7l-3-7.4l-1.8,7.4 c-3.9,1.6-7.8,2.9-11.7,0C368.6,24.8,373.5,15.6,381.8,10.4z"></path> <path class="st2" d="M437.2,242.7l3.2,28.7c0.5,1.5,1.8,2.5,3.4,2.5h14.6c1.5,0,2.9-1,3.4-2.5l2.6-22c2.6,1.3,5.8,0.2,7.1-2.4 c1.3-2.6,0.2-5.8-2.4-7.1c-1-0.5-2.2-0.7-3.3-0.5c-0.7-0.8-1.6-1.2-2.7-1.2h-22.5c-1.9,0-3.5,1.6-3.5,3.5 C437.1,242,437.1,242.3,437.2,242.7z M464.8,247.9l1.6-5.2c0.2-0.6,0.2-1.2,0.1-1.9c0.1,0,0.1,0,0.2,0c2.1,0,3.8,1.7,3.8,3.8 c0,2.1-1.7,3.8-3.8,3.8c0,0,0,0,0,0C466,248.4,465.3,248.2,464.8,247.9z"></path> <path class="st12" d="M459.2,273.9c-3.5-3.5-3.5-9.2,0-12.6c0.4-0.4,0.8-0.7,1.2-1l-14.2-70.7l15.7,5l11.4,68.4 c2.6,4.3,1.2,9.8-3.1,12.3C466.7,277.5,462.1,276.9,459.2,273.9z"></path> <path class="st10" d="M431.8,95.1l9.7-7.4c0,0,8.6-0.6,10.1,14.9s11.1,75,11.1,75l14.9,69.1l-20.6,4.5l-16-74.6l-16-51.4 L431.8,95.1z"></path> <circle class="st2" cx="347.7" cy="153.9" r="5.5"></circle> <polygon class="st12" points="171.7,529.2 183.2,529.2 188.7,484.8 171.7,484.8 "></polygon> <path class="st4" d="M168.8,525.4l3.2,0l12.6-5.1l6.8,5.1h0c8,0,14.4,6.5,14.4,14.4v0.5l-37.1,0L168.8,525.4z"></path> <polygon class="st12" points="216.3,521.9 227.5,524.5 242.6,482.4 226,478.7 "></polygon> <path class="st4" d="M214.2,517.6l3.2,0.7l13.5-2.2l5.5,6.5l0,0c7.8,1.8,12.7,9.5,10.9,17.3l-0.1,0.5l-36.2-8.2L214.2,517.6z"></path> <path class="st4" d="M150.7,301l10.4,116.5c0,0-3.9,69.9,8.7,94.6H188l9-100.9l1.1-67.8l39.1,57.2l-24.9,109.9l22.4,2l40.4-119.3 l-44.4-112L150.7,301z"></path> <circle class="st14" cx="161.5" cy="88.7" r="26.8"></circle> <path class="st5" d="M208.7,141l-22-9.4L176,120.2l-26.8,4.3l-7.1,12.2l-23,21.4l26.9,121.7l-0.8,26.6c0,0,17.2,7.8,92-10.1 c0.9-0.2-1-1.2-1-1.2L208.7,141z"></path> <path class="st4" d="M133.7,103.9c-0.2-0.3-0.4-0.5-0.6-0.8c-0.1,0.2-0.1,0.3-0.2,0.5L133.7,103.9z"></path> <path class="st4" d="M188.2,69c-1.8-3.9-5-7-9-8.6c-3.9-1.6-8.3-1.6-12.2,0c-3.5-2.2-7.5-4-11.6-4.2c-4.1-0.2-8.5,1.3-11.1,4.7 c-0.6,0.9-1.2,1.7-1.9,2.5c-2.1,1.9-5.2,1.6-7.9,1.2c1.2,1.1,2.5,2.1,3.7,3.2c-1.5,0.4-3,0.8-4.4,1.2c1.7,1,3.5,2.1,5.2,3.1 c-5,3-7.3,9.6-6.7,15.6c0.6,5.7,3.3,10.8,6.6,15.4c1.3-2.7,1-6,1-9.1c0-3.3,0.6-7,3.2-8.8c1.8-1.2,4-1.3,6.2-1.3 c10.8,0.1,21.5,0.7,32.2,2c1.4,0.1,2.9,0.5,4.1,1.2c2.4,1.6,2.8,4.9,3.1,7.9c1.2-4.8,1.9-9.8,1.8-14.8 C190.4,76.4,189.7,72.6,188.2,69z"></path> <circle class="st11" cx="196.6" cy="340.5" r="42.2"></circle> <path class="st5" d="M196.6,297.3c-2.2,0-4.3,0.2-6.5,0.5c-1.1,0.2-2.2,0.4-3.2,0.6c-23.2,5.4-37.7,28.5-32.3,51.7 c2.1,9,7,17.1,14.1,23.1c0.7,0.6,1.5,1.2,2.2,1.8c19.1,14.2,46.1,10.3,60.4-8.8s10.3-46.1-8.8-60.4 C214.9,300.3,205.9,297.3,196.6,297.3L196.6,297.3z M196.6,381.8c-8.8,0-17.3-2.8-24.4-8c-0.8-0.6-1.5-1.1-2.2-1.8 c-17.4-14.7-19.6-40.7-4.9-58.1c6-7.1,14.2-12,23.3-13.8c1.1-0.2,2.1-0.4,3.2-0.5c1.7-0.2,3.4-0.3,5-0.3 c22.8,0,41.3,18.5,41.3,41.3C237.8,363.3,219.4,381.8,196.6,381.8L196.6,381.8L196.6,381.8z"></path> <path class="st2" d="M217.3,332h-41.4c-1.5,0-2.7-1.2-2.7-2.7v-0.1c0-1.5,1.2-2.7,2.7-2.7h41.4c1.5,0,2.7,1.2,2.7,2.7v0.1 C220,330.8,218.8,332,217.3,332z"></path> <path class="st2" d="M217.3,343.3h-41.4c-1.5,0-2.7-1.2-2.7-2.7v-0.1c0-1.5,1.2-2.7,2.7-2.7h41.4c1.5,0,2.7,1.2,2.7,2.7v0.1 C220,342.1,218.8,343.3,217.3,343.3z"></path> <path class="st2" d="M217.3,354.6h-41.4c-1.5,0-2.7-1.2-2.7-2.7v-0.1c0-1.5,1.2-2.7,2.7-2.7h41.4c1.5,0,2.7,1.2,2.7,2.7v0.1 C220,353.3,218.8,354.6,217.3,354.6z"></path> <polygon class="st15" points="668.8,527.8 656.8,527.8 651,481.2 668.8,481.2 "></polygon> <polygon class="st15" points="611.8,527.8 599.7,527.8 594,481.2 611.8,481.2 "></polygon> <path class="st4" d="M612.2,540.3l-37.1,0v-0.5c0-8,6.5-14.4,14.4-14.4h0l6.8-5.1l12.6,5.1l3.2,0L612.2,540.3z"></path> <path class="st4" d="M670.8,540.3l-37.1,0v-0.5c0-8,6.5-14.4,14.4-14.4h0l6.8-5.1l12.6,5.1l3.2,0L670.8,540.3z"></path> <path class="st4" d="M599.9,252.5l-18.3,111.6l5,16.6l-6.5,11.8l9.6,103.4l-3.9,8.6l10.9,6.7h22.2l1.2-93.6l5.5-13.7v-7.6 l11.2-57.1l2.1,80l3.2,13.8l-2.7,9.8l3.6,6.9l9.5,63.7h24.9l-1.9-14.8l0,0c4.5-2.3,6.8-7.2,5.8-12.1l-1.4-6.5l3.2-19.2l5.9-107.1 L687,267l-29.1-22.2L599.9,252.5z"></path> <circle id="ab6171fa-7d69-4734-b81c-8dff60f9761b_1_" class="st15" cx="642" cy="86.1" r="23.1"></circle> <path class="st15" d="M591.5,296.8c3.8-3.9,3.7-10.2-0.2-14c-0.4-0.4-0.9-0.8-1.4-1.1l9-34l-17.3,5.8l-5.9,31.4 c-2.8,4.7-1.1,10.8,3.6,13.6C583.3,300.8,588.3,300.1,591.5,296.8L591.5,296.8z"></path> <path id="bc44dde2-a388-4b93-9ca4-c442728432a9_1_" class="st10" d="M600.9,133.6l-3.7-0.8l-3.2,1.8c0,0-8.9,11.8-8.9,22.6 c0,10.8-10.8,115.1-10.8,115.1l19.7,8.9l15.7-81.6L600.9,133.6z"></path> <path id="bf427902-b9bf-4946-b5d7-5c1c7e04535e_1_" class="st4" d="M662.2,69.1c0,0,6-11.6-7.3-12.6c0,0-11.3-10.3-22.9-1.9 c0,0-6.3,0-9.7,7.1c0,0-5-1.9-6,3.2c0,0-3.6,10.5,0,20s4.8,10.5,4.8,10.5s-6-19.8,8.5-20.9c14.5-1.1,30.7-10.1,31.9,1.4 s3,14.4,3,14.4S676.1,73.9,662.2,69.1z"></path> <path class="st11" d="M746.6,392.5c-1.7,0-3.4-0.6-4.7-1.8l-69.9-62.2c-2.9-2.6-3.2-7.1-0.6-10.1l44.8-50.3 c2.6-2.9,7.1-3.2,10.1-0.6l69.9,62.2c2.9,2.6,3.2,7.1,0.6,10.1l-44.8,50.3c-1.3,1.4-3,2.3-4.9,2.4 C746.9,392.5,746.7,392.5,746.6,392.5z"></path> <path class="st5" d="M746.6,392.9c-1.9,0-3.6-0.7-5-1.9l-69.9-62.2c-3.1-2.8-3.4-7.6-0.6-10.7l44.8-50.3c2.8-3.1,7.6-3.4,10.7-0.6 l69.9,62.2c3.1,2.8,3.4,7.6,0.6,10.7l-44.8,50.3c-1.3,1.5-3.2,2.4-5.2,2.5C746.9,392.9,746.7,392.9,746.6,392.9z M721.5,267 c-1.6,0-3.2,0.7-4.3,1.9l-44.8,50.3c-2.1,2.4-1.9,6,0.5,8.1l69.9,62.2c2.4,2.1,6,1.9,8.1-0.5c0,0,0,0,0,0l44.8-50.3 c2.1-2.4,1.9-6-0.5-8.1l-69.9-62.2C724.2,267.6,722.9,267,721.5,267L721.5,267z"></path> <path class="st2" d="M772,344.8c-0.8,0-1.5-0.3-2-0.8L715,295.2c-1.3-1.1-1.4-3.1-0.3-4.4s3.1-1.4,4.4-0.3c0,0,0,0,0,0l54.9,48.9 c1.3,1.1,1.4,3.1,0.3,4.4C773.7,344.4,772.8,344.8,772,344.8z"></path> <path class="st2" d="M761.5,356.6c-0.8,0-1.5-0.3-2-0.8l-54.9-48.9c-1.3-1.1-1.4-3.1-0.3-4.4c1.1-1.3,3.1-1.4,4.4-0.3l0,0 l54.9,48.9c1.3,1.1,1.4,3.1,0.3,4.3C763.2,356.2,762.4,356.6,761.5,356.6L761.5,356.6z"></path> <path class="st2" d="M751,368.3c-0.8,0-1.5-0.3-2-0.8l-54.9-48.9c-1.3-1.1-1.4-3.1-0.3-4.4c1.1-1.3,3.1-1.4,4.4-0.3l54.9,48.9 c1.3,1.1,1.4,3.1,0.3,4.3C752.7,368,751.9,368.3,751,368.3L751,368.3z"></path> <path class="st15" d="M688.2,298.8c-2.7-4.8-1-10.8,3.8-13.5c0.5-0.3,1-0.5,1.6-0.7l0.1-35.1l15.2,10.1l-2.4,31.8 c1.4,5.3-1.7,10.8-7,12.2C695.1,304.8,690.5,302.8,688.2,298.8z"></path> <path id="f348f81f-b961-4ae4-bc6b-758f6acfb12a_1_" class="st10" d="M689.7,143.3l6.8-6.6l5,3.6c0,0,4.9,5.9,8.9,23.6 c3.9,17.7,0,115.1,0,115.1l-21.6-3l3-51.1l-8.9-43.3L689.7,143.3z"></path> <path class="st5" d="M699.7,138.3l-22.9-11l-15.6-14.4l-28.4-0.2l-9.2,11.9l-24.2,8.2l4,83.3l-2.7,6.4c0,0,1.9,1.7,2.8,2.7 c0.9,1-1.2,9.1-1.2,9.1l-1.2,8.8l3.3,2.3l-4.2,5l-1.1,7.9c0,0,73.9-18.4,87.9,12.1c0.7,1.6-1.1-14.1-1.1-14.1l-1.8-11.5l1.8-10.3 l2.7-2.7l-4.6-4.6l3-21.9L699.7,138.3z"></path> <path class="st14" d="M179.8,323.1c2.1-5.5-0.5-11.6-6-13.8c-0.6-0.2-1.2-0.4-1.8-0.5l-5.1-37.4l-14.8,12.9l7.1,33.5 c-0.8,5.8,3.3,11.2,9.2,12C173.3,330.4,178,327.7,179.8,323.1z"></path> <path id="e1bf2fad-858c-4bea-9733-320cc40b59f5_1_" class="st5" d="M122,157.4l-4,0.8l-2.4,3c0,0-3.9,15.4,0.5,26.1 c4.5,10.7,36.7,118.6,36.7,118.6l23.2,0.7l-18-87.4L122,157.4z"></path> <path class="st14" d="M213.2,317.6c-4-4.3-3.8-11,0.4-15c0.5-0.4,0.9-0.8,1.5-1.2l-9.2-36.6l18.5,6.5l5.9,33.8 c2.9,5.1,1.1,11.6-4,14.5C222,322,216.6,321.2,213.2,317.6z"></path> <path id="ff35f29e-9865-4218-824f-c5cf71e1b056_1_" class="st5" d="M205.2,142.3l4-0.8l3.4,1.9c0,0,9.4,12.8,9.2,24.4 c-0.1,11.6,10.2,123.7,10.2,123.7l-21.2,9.3l-15.9-87.8L205.2,142.3z"></path> </g> </g> <g id="Calque_2" class="st0"> <g class="st1"> <path class="st16" d="M444.8,63.3c-46.1-0.3-90.3-12-132.5-25.1s-84.1-27.6-129.3-34c-29-4.1-62.1-4-85.1,10 C75.8,27.6,69.1,50.1,65.7,70.8c-2.6,15.6-3.9,32,4.5,46.3c5.8,10,15.9,18.2,23,27.7c24.6,33.1,8.8,75-16.2,108.4 c-11.8,15.7-25.4,30.8-34.4,47.4s-12.8,35.5-4.2,52.1c8.5,16.4,28.1,28.4,49.2,36.6c42.9,16.8,93.1,20.6,142,22.3 c108.2,3.8,216.8-1.6,325.1-7c40.1-2,80.3-4,119.6-10.3c21.8-3.5,44.3-8.8,60-20.6c19.9-15,24.3-39.6,10.3-57.4 c-23.4-29.9-86.4-35.9-103-68.2c-9.2-17.8-0.7-38,11.6-55c26.4-36.4,71.2-68.9,72.6-109.8c1-28.1-21.6-55.7-55.9-68.2 C634.1,2.2,584.9,5.1,559.2,28.8C532.8,53.2,485.6,63.5,444.8,63.3z"></path> <g id="db976b58-83c4-4bad-bfc1-713fe8b9d2f6_1_"> <path class="st17" d="M418.6,181.3c0,0-20.2-35.8-50.7-46.1c-12.8-4.3-23.9-12.5-31.6-23.6c-3.6-5.3-6.7-10.9-9.3-16.8"></path> <path class="st2" d="M307.9,88.2c3.5,3.4,19.6,6.8,19.6,6.8s-4-16-7.4-19.4c-3.5-3.4-9-3.3-12.4,0.2 C304.4,79.3,304.5,84.9,307.9,88.2z"></path> <path class="st2" d="M317.1,117.3c4.7,0.9,20.2-4.9,20.2-4.9s-12.1-11.3-16.8-12.3c-4.7-0.9-9.4,2.2-10.3,6.9 C309.3,111.7,312.3,116.3,317.1,117.3z"></path> <path class="st2" d="M350.3,148.7c4.6-1.6,15-14.4,15-14.4s-16.1-3.7-20.7-2.1c-4.6,1.5-7.1,6.5-5.6,11.1 c1.5,4.6,6.5,7.1,11.1,5.6C350.2,148.7,350.3,148.7,350.3,148.7L350.3,148.7z"></path> <path class="st2" d="M380.9,166.8c4.8-0.8,17.2-11.7,17.2-11.7s-15.3-6.4-20-5.6c-4.8,0.8-8,5.3-7.2,10.1 S376.1,167.6,380.9,166.8L380.9,166.8L380.9,166.8z"></path> <path class="st2" d="M350.7,99.8c0,4.8-8.7,18.9-8.7,18.9s-8.8-14-8.8-18.9c0-4.8,3.9-8.8,8.8-8.8S350.7,95,350.7,99.8 L350.7,99.8z"></path> <path class="st2" d="M386.2,121.4c-1.5,4.6-14,15.4-14,15.4s-4.2-16-2.7-20.6c1.4-4.6,6.4-7.2,11-5.7 C385.1,111.9,387.6,116.8,386.2,121.4L386.2,121.4L386.2,121.4z"></path> <path class="st2" d="M417.8,147.2c-0.6,4.8-11.2,17.5-11.2,17.5s-6.8-15.1-6.2-19.9c0.6-4.8,5.1-8.2,9.8-7.5 C415,138,418.4,142.4,417.8,147.2z"></path> <path class="st18" d="M307.9,88.2c3.5,3.4,19.6,6.8,19.6,6.8s-4-16-7.4-19.4c-3.5-3.4-9-3.3-12.4,0.2 C304.4,79.3,304.5,84.9,307.9,88.2z"></path> <path class="st18" d="M317.1,117.3c4.7,0.9,20.2-4.9,20.2-4.9s-12.1-11.3-16.8-12.3c-4.7-0.9-9.4,2.2-10.3,6.9 C309.3,111.7,312.3,116.3,317.1,117.3z"></path> <path class="st18" d="M350.3,148.7c4.6-1.6,15-14.4,15-14.4s-16.1-3.7-20.7-2.1c-4.6,1.5-7.1,6.5-5.6,11.1 c1.5,4.6,6.5,7.1,11.1,5.6C350.2,148.7,350.3,148.7,350.3,148.7L350.3,148.7z"></path> <path class="st18" d="M380.9,166.8c4.8-0.8,17.2-11.7,17.2-11.7s-15.3-6.4-20-5.6c-4.8,0.8-8,5.3-7.2,10.1 S376.1,167.6,380.9,166.8L380.9,166.8L380.9,166.8z"></path> <path class="st18" d="M350.7,99.8c0,4.8-8.7,18.9-8.7,18.9s-8.8-14-8.8-18.9c0-4.8,3.9-8.8,8.8-8.8S350.7,95,350.7,99.8 L350.7,99.8z"></path> <path class="st18" d="M386.2,121.4c-1.5,4.6-14,15.4-14,15.4s-4.2-16-2.7-20.6c1.4-4.6,6.4-7.2,11-5.7 C385.1,111.9,387.6,116.8,386.2,121.4L386.2,121.4L386.2,121.4z"></path> <path class="st18" d="M417.8,147.2c-0.6,4.8-11.2,17.5-11.2,17.5s-6.8-15.1-6.2-19.9c0.6-4.8,5.1-8.2,9.8-7.5 C415,138,418.4,142.4,417.8,147.2z"></path> <path class="st17" d="M417.5,180.6c0,0-4-40.9-27.6-62.7c-10-9.1-16.8-21.1-19.3-34.4c-1.2-6.3-1.7-12.7-1.7-19.1"></path> <path class="st2" d="M354,50.6c1.8,4.5,15.2,14.2,15.2,14.2s2.9-16.3,1.1-20.8c-1.7-4.5-6.8-6.8-11.3-5c-4.5,1.7-6.8,6.8-5,11.3 C353.9,50.5,354,50.5,354,50.6z"></path> <path class="st2" d="M350.6,80.9c4,2.8,20.5,3.7,20.5,3.7s-6.4-15.2-10.4-18c-4-2.8-9.4-1.8-12.2,2.1 C345.7,72.6,346.6,78.1,350.6,80.9L350.6,80.9z"></path> <path class="st2" d="M368.3,123.1c4.8,0.4,19.5-7.2,19.5-7.2s-13.2-9.9-18.1-10.3c-4.8-0.4-9.1,3.2-9.5,8 C359.9,118.5,363.5,122.7,368.3,123.1L368.3,123.1z"></path> <path class="st2" d="M388.9,152c4.7,1.2,20.5-3.7,20.5-3.7s-11.4-12-16.1-13.2c-4.6-1.5-9.5,1.1-11,5.7c-1.5,4.6,1.1,9.5,5.7,11 C388.3,151.8,388.6,151.9,388.9,152L388.9,152z"></path> <path class="st2" d="M388.5,78.6c-2,4.4-15.6,13.7-15.6,13.7s-2.3-16.4-0.4-20.8c2-4.4,7.1-6.4,11.5-4.5 C388.4,69,390.4,74.2,388.5,78.6z"></path> <path class="st2" d="M412.1,112.7c-3.2,3.6-19,8.4-19,8.4s2.7-16.3,5.9-19.9c3.2-3.6,8.7-4,12.4-0.8 C414.9,103.5,415.3,109.1,412.1,112.7L412.1,112.7L412.1,112.7z"></path> <path class="st2" d="M430.5,149c-2.5,4.1-17.3,11.5-17.3,11.5s-0.1-16.5,2.4-20.7c2.6-4,8.1-5.2,12.1-2.5 C431.6,139.9,432.8,145,430.5,149z"></path> </g> <path class="st16" d="M608,441c2.2,4.4-13.2,9.2-32.2,10.5c-17,1.2-31-0.8-32.8-4.4s9.1-7.9,25.7-9.9 C587.4,435.1,605.9,436.6,608,441z"></path> <polygon class="st11" points="160.9,207.5 395.3,124.5 395.3,411.3 160.9,406.4 "></polygon> <polygon class="st19" points="160.9,207.5 395.3,124.5 395.3,411.3 160.9,406.4 "></polygon> <polygon class="st11" points="0,254.9 133.7,207.5 133.7,406.4 0,406.4 "></polygon> <polygon class="st19" points="0,254.9 133.7,207.5 133.7,406.4 0,406.4 "></polygon> <polygon class="st11" points="395.3,124.5 629.6,207.5 629.6,406.4 395.3,411.3 "></polygon> <polygon class="st20" points="395.3,124.5 629.6,207.5 629.6,406.4 395.3,411.3 "></polygon> <polygon class="st11" points="793,255.5 657.6,207.5 657.6,406.4 793,406.4 "></polygon> <polygon class="st20" points="793,255.5 657.6,207.5 657.6,406.4 793,406.4 "></polygon> <path class="st11" d="M77.9,289.4c-0.9,0-1.7,1.3-1.7,2.9v36c0.1,3.6-0.8,7.1-2.4,10.2c-1.5,2.7-3.9,4.4-6.1,4.4h-1.5 c-2.2,0-4.4-1.6-6.1-4.6c-1.8-3.1-2.7-6.7-2.7-10.3v-46.4c0-2.6,0.6-5.1,1.9-7.3c1.2-1.9,2.8-3,4.5-3s3.2,1.1,4.4,3 c1.2,2.2,1.9,4.8,1.8,7.4V325c0,3.2-1.5,6-3.2,6c-1.5,0-3.1-2.4-3.1-6v-24.8c0-1.6-0.8-2.9-1.7-2.9c-0.9,0-1.7,1.3-1.7,2.9V325 c0,6.6,2.8,11.5,6.6,11.5c1.8,0,3.5-1.1,4.7-3.2c1.4-2.6,2-5.4,1.9-8.3v-43.4c0.1-4-0.9-7.9-2.9-11.4c-1.8-3.1-4.3-4.7-6.9-4.7 c-2.6,0-5,1.7-6.9,4.7c-2,3.5-3,7.5-2.9,11.5v46.4c0,5.3,1.4,10.7,3.6,14.4s5.3,5.9,8.4,5.9h1.5c3.1,0,6.1-2.2,8.4-5.9 c1.2-2,2.1-4.2,2.6-6.4c0.7-2.5,1-5.2,1-7.8v-36C79.6,290.6,78.9,289.3,77.9,289.4L77.9,289.4z"></path> <path class="st2" d="M407.3,369.5c0,0,4.4,5.7-2,14.3c-6.4,8.6-11.6,15.9-9.5,21.3c0,0,9.6-16,17.4-16.2 C421,388.8,415.9,379.2,407.3,369.5z"></path> <path class="st6" d="M407.3,369.5c0.4,0.6,0.7,1.2,0.9,1.8c7.6,9,11.7,17.3,4.4,17.6c-6.8,0.2-15,12.4-17,15.5 c0.1,0.2,0.1,0.5,0.2,0.7c0,0,9.6-16,17.4-16.2S415.9,379.2,407.3,369.5z"></path> <path class="st21" d="M415.4,376.8c0,2-0.2,3.6-0.5,3.6c-0.3,0-0.5-1.6-0.5-3.6s0.3-1.1,0.6-1.1 C415.2,375.8,415.4,374.8,415.4,376.8z"></path> <path class="st21" d="M418.2,379.2c-1.8,1-3.3,1.5-3.4,1.3c-0.1-0.2,1.2-1.2,2.9-2.2c1.8-1,1.1-0.3,1.2,0S419.9,378.3,418.2,379.2 z"></path> <path class="st2" d="M384.2,369.5c0,0-4.4,5.7,2,14.3c6.4,8.6,11.6,15.9,9.5,21.3c0,0-9.6-16-17.4-16.2 C370.5,388.8,375.6,379.2,384.2,369.5z"></path> <path class="st6" d="M384.2,369.5c-0.4,0.6-0.7,1.2-0.9,1.8c-7.6,9-11.7,17.3-4.4,17.6c6.8,0.2,15,12.4,17,15.5 c-0.1,0.2-0.1,0.5-0.2,0.7c0,0-9.6-16-17.4-16.2S375.6,379.2,384.2,369.5z"></path> <path class="st21" d="M376.1,376.8c0,2,0.2,3.6,0.5,3.6s0.5-1.6,0.5-3.6s-0.3-1.1-0.6-1.1S376.1,374.8,376.1,376.8z"></path> <path class="st21" d="M373.3,379.2c1.8,1,3.3,1.5,3.4,1.3c0.1-0.2-1.2-1.2-2.9-2.2s-1.1-0.3-1.2,0S371.5,378.3,373.3,379.2z"></path> <ellipse class="st16" cx="395.7" cy="441.8" rx="45.6" ry="7"></ellipse> <path class="st22" d="M419.2,397.4l-0.2,1.8l-0.3,2.5l-0.1,1l-0.3,2.5l-0.1,1l-0.3,2.5l-3.5,28.6c-0.3,2.6-4.5,4.5-9.5,4.5h-18.1 c-5,0-9.2-2-9.5-4.5l-3.5-28.6l-0.3-2.5l-0.1-1l-0.3-2.5l-0.1-1l-0.3-2.5l-0.2-1.8c-0.2-1.5,2.1-2.7,4.9-2.7h37.1 C417.1,394.8,419.4,396,419.2,397.4z"></path> <polygon class="st23" points="419,399.2 418.7,401.7 372.8,401.7 372.5,399.2 "></polygon> <polygon class="st23" points="418.6,402.8 418.3,405.3 373.2,405.3 372.9,402.8 "></polygon> <polygon class="st23" points="418.1,406.4 417.8,408.9 373.7,408.9 373.3,406.4 "></polygon> <path class="st11" d="M307.1,242l-7,9.3c-0.1,0.2-0.3,0.3-0.5,0.2l-7.3-1.7c-0.3-0.1-0.5-0.4-0.5-0.7l-1.3-9.6 c0-0.3,0-0.5,0.2-0.7l7-9.3c0.5-0.8,0.5-1.8-0.2-2.5c-1.3-1.3-3.1-2.1-5-2.2c-0.1,0-0.2,0-0.3,0c-2,0.1-6.2,1.6-9.4,6.2 c-3.1,4.4-6.4,12.6-3.5,21.6c0.3,1.1,0.7,2.5-0.4,4.1c-1.2,1.5-31.2,39-31.2,39c-2.8,3.2-2.6,9.2,0,12.6c1.1,1.6,2.9,2.6,4.9,2.6 c1.9,0,3.7-1.1,4.6-2.7c0,0,28.1-39.6,29.4-41.4c0.4-0.6,1-1,1.7-1.1c0.5,0,1,0.2,1.3,0.5c1.5,1,3.3,1.6,5.1,1.5 c4.2,0,8.6-2.6,11.3-6.1c2.8-3.6,4.4-7.9,4.6-12.4c0.1-2.5-0.5-4.9-1.7-7.1c-0.2-0.5-0.9-0.8-1.4-0.6 C307.3,241.7,307.2,241.8,307.1,242L307.1,242z M254.1,303.8c-0.6,0.9-1.7,1.1-2.6,0.5c-0.2-0.1-0.4-0.3-0.5-0.5 c-0.8-1.2-0.8-2.9,0-4.1c0.6-0.9,1.7-1.1,2.6-0.5c0.2,0.1,0.4,0.3,0.5,0.5C254.9,300.9,254.9,302.6,254.1,303.8L254.1,303.8z"></path> <path class="st11" d="M555.8,260.1c-1.9-22.5-17.2-39.9-35.7-39.9c-12.3,0-23,7.6-29.5,19.3c-2-1-4.2-1.6-6.4-1.6 c-9.4,0-16.9,10.3-17.1,21.9c-9.6,3.8-15.9,15.4-15.9,27.7c0,15,9.7,28.2,21.7,28.2h79c12,0,21.8-13.2,21.8-28.2 C573.7,274.1,566,262.4,555.8,260.1L555.8,260.1z M537.9,254.9l-32,40.1l0,0c-0.4,0.5-1.5,1.6-2.8,1.6c-1.1-0.1-2.2-0.8-2.8-1.7 l-13.4-16.7c-0.4-0.5-0.4-1.2,0-1.7l4.3-5.3c0.2-0.2,0.4-0.4,0.7-0.4c0.3,0,0.5,0.1,0.7,0.4l10.6,13.2l29.2-36.7 c0.2-0.2,0.4-0.3,0.7-0.4c0.3,0,0.5,0.1,0.7,0.4l4.2,5.4C538.3,253.7,538.3,254.4,537.9,254.9L537.9,254.9z"></path> <ellipse class="st11" cx="749.5" cy="285.9" rx="7.3" ry="9.7"></ellipse> <path class="st11" d="M749.5,299.4c-0.8,0-1.6-0.1-2.4-0.4l-7.2,9.8c-0.1,0.2-0.1,0.4,0,0.6l11.4,16.2c0.8,1.1,0.8,2.6,0,3.7 c-0.3,0.4-0.8,0.7-1.4,0.7c-0.6,0-1.1-0.3-1.4-0.7l-11.4-16.2c-0.1-0.1-0.2-0.2-0.4-0.1c0,0-0.1,0-0.1,0.1l-2.8,3.8 c-2.3,3.1-5.4,2.7-8.7,2.7s-6.5-1.9-8.9-5l-2.7-3.6c-0.1-0.1-0.2-0.2-0.4-0.1c0,0-0.1,0-0.1,0.1L702,327c-0.3,0.4-0.8,0.7-1.4,0.7 c-0.6,0-1.1-0.3-1.4-0.7c-0.8-1.1-0.8-2.6,0-3.7l11.4-16.2c0.1-0.2,0.1-0.4,0-0.6l-16.3-22.2c-0.2-0.3-0.5-0.1-0.5,0.3V329 c0,3.6,2.2,6.5,4.8,6.5l53.3,2.2c2.7,0,4.8-2.9,4.8-6.5v-36C755,297.8,752.4,299.4,749.5,299.4z"></path> <path class="st11" d="M739.5,285.9c0-2.2,0.4-4.4,1.2-6.5l-42.1-2.2c-1.2,0-2.2,0.5-3,1.4l23.8,32.3c1.3,2,3.5,3.2,5.9,3.3 c2.2,0,4.4,1,5.9-1.1l12.2-16.6C741,294.1,739.5,290.3,739.5,285.9z"></path> <path class="st2" d="M798.8,402.3c0,0-8.6-0.5-7.6,5.5c-0.1,0.6,0.2,1.2,0.7,1.6c0,0,0-0.4,0.9-0.3c0.3,0,0.6,0.1,0.9,0 c0.4,0,0.8-0.2,1.1-0.5l0,0c0,0,2.4-1,3.4-5c0,0,0.7-0.9,0.7-1.1l-1.5,0.6c0.3,0.6,0.3,1.3,0.1,1.9c0,0,0-1.9-0.3-1.8 c-0.1,0-0.7,0.4-0.7,0.4s0.9,1.8,0.2,3.1c0,0,0.2-2.2-0.5-3l-1,0.6c0,0,1,1.9,0.3,3.4c0,0,0.2-2.4-0.5-3.3l-0.9,0.7 c0,0,0.9,1.9,0.4,3.1c0,0-0.1-2.7-0.6-2.9c-0.4,0.3-0.7,0.6-0.9,1c0,0,0.6,1.3,0.2,2.1c0,0-0.2-1.8-0.4-1.8 c-0.4,0.6-0.7,1.3-0.9,2c0-0.8,0.3-1.5,0.7-2.2c-0.5,0.1-0.9,0.3-1.2,0.6c0,0,0.1-0.9,1.5-0.9c0.2-0.4,0.5-0.7,0.8-1 c-0.7-0.1-1.4,0-2.1,0.2c0,0,0.7-0.8,2.3-0.4l0.9-0.7c-0.8-0.1-1.6-0.1-2.4,0c0,0,0.8-0.7,2.7-0.2l1-0.6c-0.8-0.2-1.5-0.2-2.3-0.2 c0.8-0.3,1.8-0.3,2.6,0l0.7-0.3c0,0-1.1-0.2-1.4-0.2s-0.3-0.1-0.3-0.1c0.7-0.1,1.4,0,2,0.2C797.9,402.7,798.3,402.5,798.8,402.3z"></path> <ellipse class="st16" cx="792.9" cy="409.8" rx="6.1" ry="1"></ellipse> <path class="st2" d="M666.4,402.5c0,0-10.4-0.6-9.2,6.6c-0.1,0.8,0.2,1.5,0.9,1.9c0,0,0-0.5,1.1-0.4c0.4,0.1,0.7,0.1,1.1,0.1 c0.5,0,1-0.2,1.4-0.6l0,0c0,0,2.9-1.2,4-6c0,0,0.8-1,0.8-1.3l-1.8,0.7c0.3,0.7,0.4,1.6,0.1,2.3c0,0-0.1-2.3-0.4-2.2 c-0.1,0-0.9,0.4-0.9,0.4s1,2.2,0.3,3.8c0,0,0.3-2.7-0.6-3.7l-1.2,0.7c0,0,1.2,2.3,0.4,4.1c0,0,0.2-2.8-0.6-4l-1.1,0.9 c0,0,1.1,2.2,0.4,3.8c0,0-0.1-3.3-0.7-3.6c-0.4,0.4-0.8,0.8-1.1,1.2c0,0,0.7,1.6,0.3,2.5c0,0-0.3-2.2-0.5-2.2 c-0.5,0.7-0.9,1.6-1.1,2.5c0-0.9,0.3-1.8,0.8-2.6c-0.6,0.1-1.1,0.4-1.5,0.7c0,0,0.2-1,1.7-1.1c0.3-0.4,0.6-0.8,1-1.2 c-0.9-0.1-1.7,0-2.5,0.3c0,0,0.8-1,2.8-0.5l1.1-0.9c-1-0.2-2-0.2-2.9,0c0,0,1-0.9,3.2-0.2l1.2-0.7c-0.9-0.2-1.9-0.3-2.8-0.2 c0,0,1.1-0.6,3.2,0l0.9-0.4c0,0-1.3-0.3-1.7-0.3c-0.4,0-0.4-0.1-0.4-0.1c0.8-0.1,1.7,0,2.4,0.3C665.2,403,665.8,402.8,666.4,402.5 z"></path> <ellipse class="st16" cx="659.2" cy="411.7" rx="7.3" ry="1.2"></ellipse> <linearGradient id="SVGID_1_" gradientUnits="userSpaceOnUse" x1="626.7056" y1="609.5429" x2="626.7056" y2="775.8222" gradientTransform="matrix(1 0 0 -1 -52.96 1059.0167)"> <stop offset="0" style="stop-color:#808080;stop-opacity:0.25"></stop> <stop offset="0.54" style="stop-color:#808080;stop-opacity:0.12"></stop> <stop offset="1" style="stop-color:#808080;stop-opacity:0.1"></stop> </linearGradient> <path class="st24" d="M601.3,330c0,0,0.8-0.8,0.6-1.4c-0.2-0.3-0.2-0.7,0-1.1c0,0-1.9-7.5-2.6-8.2c-0.5-0.5-0.8-1.2-1.1-1.9 c0.1-0.1,0.1-0.3,0.1-0.5c0-0.8-0.3-1.5-0.7-2.1c-0.6-0.8-0.9-1.8-0.9-2.8c0-0.1,0-0.2,0-0.4l0,0l0,0c-0.4-1.1-1.4-2-2.5-2.3 c0.2-1.6,0.6-3.2,0.7-4.8c0.3-5-1.5-9.8-3.3-14.5c-0.4-1.2-0.9-2.3-1.6-3.3c-1.7-2.2-4.2-3.5-6.9-3.8c-1-0.1-2,0-2.9,0.3 c-0.9,0.4-1.8,1-2.5,1.7c-0.8,0.7-1.6,1.3-2.3,2.1l-0.1,0.1l-0.3,0.3l-0.1,0.1l-0.2,0.3l-0.1,0.1c-0.1,0.1-0.2,0.3-0.3,0.4l0,0 c-0.1,0.1-0.2,0.2-0.3,0.4l-0.1,0.1l-0.2,0.3l-0.1,0.1c-0.1,0.1-0.1,0.2-0.2,0.3l-0.1,0.1c-0.1,0.1-0.2,0.3-0.2,0.4l-0.3,0.6v0.1 l-0.2,0.4c-0.2,0.5-0.4,0.9-0.6,1.4l0,0l0,0.1l-0.5,0.6c-0.2,0.3-0.4,0.7-0.6,1l-0.1,0.1c0,0.1,0,0.1-0.1,0.2l-0.1,0.1 c0,0.1,0,0.1-0.1,0.2c0,0,0,0.1,0,0.1l0,0.2c0,0.1,0,0.1,0,0.1c0,0.1,0,0.1,0,0.2v0.2v0.2c0,0.1,0,0.1,0,0.2s0,0.1,0,0.1 s0,0.2,0,0.3c0,0.1,0,0.1,0,0.1c0,0.1,0,0.1,0,0.2c0,0,0,0.1,0,0.1c0,0.1,0,0.1,0,0.2v0.1c0,0.1,0,0.1,0,0.2c0,0,0,0.1,0,0.1 l0,0.2c0,0,0,0.1,0,0.1l0.1,0.2c0,0,0,0.1,0,0.1c0,0,0.1,0.2,0.1,0.3c0.2,0.5,0.5,1,0.8,1.4c0.2,0.3,0.4,0.6,0.7,0.9l0.3,0.4 c0.2,0.3,0.4,0.6,0.6,0.9c1.1,2,1,4.4-0.2,6.3l-0.3,0.4c-0.1,0.2-0.2,0.5-0.3,0.7c-0.1,0.5,0.1,0.9,0.4,1.3l-0.7,0.2 c-0.5,0.1-0.9,0.3-0.9,0.3c-0.4,0-0.9,0-1.3,0c-0.6,0.2-1.2,0.6-1.6,1c0,0-2.8,0.3-3.7-0.5c-0.9-0.8-4.1-1.1-4.1-1.1 s-0.9-1.8-1.9-2.3s-3.4-1.6-3.4-2.1c-0.2-0.6-0.5-1.1-0.9-1.6c-0.5-0.1-1-0.2-1.5-0.2l-0.2-0.3l-2-3.4c0,0-2.5-2.9-3.8-3.1 c-1.3-0.3,1.9,3.1,2,3.2c-0.9-0.7-2.3-0.5-2.9,0.5c-1,1.2,1.7,3.9,3.5,5.4l0.3,0.2c0,0.2,0,0.3,0.1,0.4c0.8,4,5.1,7.5,5.1,7.5 s0.5,2.3,2.1,2.8c1.3,0.4,8.2,3.6,11.8,4.2c-0.3,0.8-0.7,2.6,0.8,5.3c0,0,0.4,4.7-0.4,5.3c-0.8,0.6-0.7,7.5-0.7,7.5 s-2.9,11.9,0,14.4c0.2,0.2,0.4,0.3,0.6,0.4c0,0.2,0.1,0.4,0.1,0.6c0.1,1.2,0.2,2.4-0.1,2.9c-0.7,1.2,0.2,4.3,0.2,4.3 s-2.8,16.1-1.6,21.8c0.8,4.2,1.2,8.6,1.1,12.9c0,0-0.4,5,1.8,8c0.2,0.7,0.4,1.5,0.4,2.2c0.1,1.4,0.5,2.9,1.1,4.2 c0.5,1,1.5,5,0.6,6.1c-0.8,1.1,0.9,13,0.9,13s-1.4,3.7,0,5.6l0,0.1c-0.8,0-1.7-0.1-2.5-0.4c-1.6-0.5-0.4,1.5,1.5,2.8 c-0.8,1.9-1.9,4.3-2.3,5.1c-1.6,0.3-4.8,0.7-6.7,0.3c-2.6-0.6,1.1,3.6,4.6,4.3c2.5,0.5,5,0.6,7.5,0.5l2.3-2.5 c1.8,0.2,3.7,0.3,5.5,0.2l-0.2,2.3h1.3v-2.4c0.8-0.1,1.7-0.2,2.6-0.4c0,0,0.1-2.5-0.1-5l0.8,0.1l0.1-1.3l2.9,0.5l2.6-21.3 c0,0,0.3-7.9,0.9-12.4c0.6-4.5-1.3-19.4-1.3-19.4s-0.1-0.7-0.3-2.1s0-9.5,0-9.5s1.1-4.4,0.8-4.8c-0.2-0.4,0.1-2.3,0.1-2.3 c4.4-9-1-17.1-2.9-19.5c0.1-0.1,0.2-0.2,0.2-0.4c0-0.1,0-0.1,0-0.2c-0.3-0.8-0.7-1.5-1.1-2.2l1.1-1.4c0.4,0.6,0.7,1,0.7,1 s1.2-2.7,2.4-3.7c1.2-1,7-10.6,7-10.6s1.3-0.9,0.6-1.6C600.9,329.9,601.3,330,601.3,330z M583.6,405.7c-0.1-0.3-0.3-0.6-0.5-0.8 c0,0-0.2-1.5-0.3-3.4c0.4,1.5,0.8,2.5,0.8,2.5L583.6,405.7z M586.9,440.7c0-0.1,0-0.3,0-0.4h0.1L586.9,440.7z M587.8,343.3 L587.8,343.3c0-0.5,0.1-0.8,0.5-1.1c0.2-0.1,0.3-0.3,0.2-0.5c0-0.3-0.2-0.6-0.3-0.9c0.1,0.1,0.6,0.3,0.9-0.5 c0-0.1,0.1-0.3,0.1-0.4c-0.1-0.7-0.4-1.4-0.8-1.9l3.2-6.7c0.3,0.1,0.7,0.2,1.1,0.2l0,0c-0.8,2.6-1.5,5.6-1.5,5.6l-2.5,5.4 c0.2,0.1,0.3,0.2,0.4,0.3L587.8,343.3z"></path> <path class="st22" d="M577.2,436.5c0,0-4.1,0.5-6.1-0.2c-2-0.7,0.6,2.9,3.3,3.8c1.9,0.6,3.9,0.9,5.9,1l3.2-3l3.4,0.3l-0.6,3.3 l1.1,0.1l0.4-4.3L577.2,436.5z"></path> <path class="st6" d="M577.2,436.5c0,0-4.1,0.5-6.1-0.2c-2-0.7,0.6,2.9,3.3,3.8c1.9,0.6,3.9,0.9,5.9,1l3.2-3l3.4,0.3l-0.6,3.3 l1.1,0.1l0.4-4.3L577.2,436.5z"></path> <path class="st22" d="M571.2,444.1c0,0-5,1.1-7.5,0.5s1.1,3.5,4.5,4.3c2.4,0.5,4.8,0.6,7.3,0.5l3.5-4l4.1-0.1l-0.3,4.1h1.3v-5.3 H571.2z"></path> <path class="st6" d="M571.2,444.1c0,0-5,1.1-7.5,0.5s1.1,3.5,4.5,4.3c2.4,0.5,4.8,0.6,7.3,0.5l3.5-4l4.1-0.1l-0.3,4.1h1.3v-5.3 H571.2z"></path> <path class="st22" d="M589.6,349.8c0,0,8.5,9.4,3.4,20.1c0,0-0.3,1.9-0.1,2.2c0.2,0.3-0.8,4.8-0.8,4.8s-0.1,8,0,9.4 s0.3,2.1,0.3,2.1s1.9,14.8,1.3,19.2c-0.6,4.4-0.9,12.3-0.9,12.3l-2.5,21.2l-13-2.4l5.9-29.1l0.2-5.1c0,0-2.4-6.3-1.4-9.5 c1.1-3.2-0.3-43.8-0.3-43.8L589.6,349.8z"></path> <path class="st25" d="M589.6,349.8c0,0,8.5,9.4,3.4,20.1c0,0-0.3,1.9-0.1,2.2c0.2,0.3-0.8,4.8-0.8,4.8s-0.1,8,0,9.4 s0.3,2.1,0.3,2.1s1.9,14.8,1.3,19.2c-0.6,4.4-0.9,12.3-0.9,12.3l-2.5,21.2l-13-2.4l5.9-29.1l0.2-5.1c0,0-2.4-6.3-1.4-9.5 c1.1-3.2-0.3-43.8-0.3-43.8L589.6,349.8z"></path> <path class="st22" d="M583.3,395.4c-1.5,2.8-0.5,9.8-0.5,9.8c2,1.7,0.9,16.5,0.9,16.5s1.4,14.6,2.2,16.3s0.7,8.7,0.7,8.7 c-10,1.8-16.5-2.1-16.5-2.1s3.2-7.3,3.3-7.6c0-0.2,0.5,0.3,0.6,0.5l-0.6-0.8c-1.4-1.9,0-5.6,0-5.6s-1.7-11.8-0.9-12.9 c0.8-1.1-0.1-5.1-0.6-6c-0.6-1.3-1-2.7-1.1-4.1c0-0.7-0.2-1.5-0.4-2.2c-2.1-3-1.7-7.9-1.7-7.9c0.1-4.3-0.3-8.5-1.1-12.8 c-1.2-5.6,1.5-21.6,1.5-21.6s-0.9-3.1-0.2-4.3c0.3-0.5,0.3-1.7,0.1-2.9c-0.2-1.5-0.5-2.8-0.5-2.8l18.5-3.3 c0.4,0.6,0.7,1.3,1.1,1.9c6.1,11.3,2,15.5,2,15.5l-3.9,12.1C586.2,379.7,584.8,392.6,583.3,395.4z"></path> <path class="st26" d="M554,306.9l-2.6,2.2c0,0-0.5-0.4-1.2-1c-1.7-1.5-4.3-4.2-3.3-5.3c0.6-0.9,1.9-1.1,2.8-0.5c0,0,0,0,0.1,0 c-0.1-0.2-3.2-3.5-2-3.2c1.3,0.3,3.7,3.1,3.7,3.1l1.9,3.4L554,306.9z"></path> <polygon class="st26" points="589.4,343.5 586.3,344.5 588.7,348.6 591.4,345.1 "></polygon> <circle class="st26" cx="582.1" cy="295.7" r="8.9"></circle> <path class="st26" d="M576.9,299c0,0,8.1,12.8,0.4,13.9s10.3,8.9,10.3,8.9l6.7-6.8c0,0-7-12.1-5.9-16.7 C589.5,293.7,576.9,299,576.9,299z"></path> <path class="st6" d="M588.2,352.1c-1.8,0.5-3.6,1-5.5,1.3c0,0-10,4.4-13.6,2.9c-0.2-1.5-0.5-2.8-0.5-2.8l18.5-3.3 C587.5,350.8,587.8,351.5,588.2,352.1z"></path> <path class="st27" d="M597.4,318.5l-1.8,3.7l-2,4.2l-0.3,0.6l-2.4,5.2l-3.1,6.6c0,0,1.1,1.3,0.7,2.3s-0.8,0.5-0.9,0.5 c0.1,0.1,0.7,1,0.1,1.4c-0.4,0.3-0.5,0.8-0.4,1.3c0,0,2.5,4.1,3,5.6s-7.6,2.8-7.6,2.8s-11.5,5.1-14.3,2.6c-2.9-2.5,0-14.3,0-14.3 s0-6.8,0.7-7.4c0.7-0.6,0.4-5.3,0.4-5.3c-2-3.6-0.6-5.6-0.6-5.6l-0.5-9.2c0,0,0.9-0.9,1.6-1c0.4,0,0.9,0,1.3,0 c0,0,0.4-0.1,0.9-0.3c1.1-0.3,2.9-0.7,3.5-0.4c0.9,0.5,7.1-0.7,7.1-0.7c2.6-0.4,5.3-0.6,7.9-0.7c0.9-0.1,1.8,0,2.7,0.3 c1.2,0.3,2.2,1.1,2.6,2.3c-0.1,1.1,0.2,2.2,0.8,3.1C597.8,317.8,597.4,318.5,597.4,318.5z"></path> <path class="st6" d="M554,306.9l-2.6,2.2c0,0-0.5-0.4-1.2-1c-0.2-2.3,1.7-2.6,3.1-2.5L554,306.9z"></path> <path class="st27" d="M569.5,313.4l-1.2,0.1c0,0-2.7,0.3-3.6-0.5c-0.9-0.8-4-1.1-4-1.1s-0.9-1.8-1.8-2.3s-3.3-1.6-3.3-2.1 c-0.2-0.6-0.5-1.1-0.9-1.6c0,0-5.1-1.2-4.3,2.8c0.8,4,4.9,7.5,4.9,7.5s0.5,2.2,2,2.8c1.6,0.6,11.7,5.3,13.3,4.1 C572.3,321.9,569.5,313.4,569.5,313.4z"></path> <path class="st6" d="M596.8,316c-0.6-0.9-0.9-2-0.8-3.1c-0.4-1.2-1.4-2-2.6-2.3c-0.4-0.1-0.9-0.2-1.3-0.3c1.2,0.3,2.1,1.1,2.6,2.3 c-0.1,1.1,0.2,2.2,0.8,3.1c1.1,1.8,0.6,2.5,0.6,2.5l-1.8,3.7l-2,4.2l-0.3,0.6l-2.4,5.2l-3.1,6.6c0,0,1.1,1.3,0.7,2.3 c-0.3,1-0.8,0.5-0.9,0.5c0.1,0.1,0.7,1,0.1,1.4c-0.4,0.3-0.5,0.8-0.4,1.3c0,0,2.5,4.1,3,5.6c0.5,1.5-7.6,2.8-7.6,2.8 s-8,3.5-12.3,3.3c3.7,1.4,13.6-3,13.6-3s8.1-1.3,7.6-2.8c-0.5-1.5-3-5.6-3-5.6c-0.1-0.5,0-1,0.4-1.3c0.6-0.4-0.1-1.3-0.1-1.4 c0.1,0.1,0.6,0.5,0.9-0.5c0.3-0.9-0.7-2.3-0.7-2.3l3.1-6.6l2.4-5.2l0.3-0.6l2-4.2l1.8-3.7C597.4,318.5,597.8,317.8,596.8,316z"></path> <path class="st27" d="M596.1,317.5l1.2,1c0.2,0.7,0.6,1.3,1,1.8c0.7,0.7,2.5,8.1,2.5,8.1c-0.2,0.3-0.2,0.7,0,1.1 c0.3,0.5-0.5,1.4-0.5,1.4s-0.4-0.1,0.3,0.6c0.7,0.8-0.6,1.6-0.6,1.6s-5.6,9.5-6.7,10.5c-1.2,1-2.3,3.7-2.3,3.7s-2.4-3.8-3-3.9 l2.4-5.4c0,0,1.6-7.5,2.8-8.8c1.2-1.4-0.6-6-0.6-6L596.1,317.5z"></path> <path class="st6" d="M596.9,331.4c-1,1.2-2.8,1.5-4.4,1.3c-0.2,0-0.5-0.1-0.7-0.1c-0.3-0.1-0.7-0.1-1-0.2 c-1.2-0.3-2.4-0.9-3.4-1.7c-0.2-0.2-0.5-0.3-0.7-0.4c-0.7-0.1-1.3,0.3-1.6,0.9c-0.3,0.6-0.5,1.2-0.9,1.8c-0.8,1.1-2,1.7-3.3,1.6 c-1.3,0-2.6-0.3-3.8-0.7c1.1-1.2,1.9-2.5,2.4-4c0.2-1,0.3-2,0.2-3c-0.3-4.8-2-9.9-5.9-12.7c-0.7-0.5-1.5-1.1-1.7-1.8 c1.1-0.3,2.9-0.7,3.5-0.4c0.9,0.5,7.1-0.7,7.1-0.7c2.6-0.4,5.3-0.6,7.9-0.7c0.9-0.1,1.8,0,2.7,0.3c-0.4,2-0.5,4.1-0.2,6.1 c0.3,1.2,0.7,2.5,1.3,3.6c0.4,0.7,0.7,1.3,1.1,2c1,1.9,2,3.7,2.2,5.8C597.9,329.2,597.6,330.4,596.9,331.4z"></path> <path class="st6" d="M583.5,340.9c0.5-0.1,1.1-0.2,1.6-0.1c0.4,0.1,0.9,0.4,1.2,0.7h-3.5c-0.9,0-2.3,0.1-2.9-0.6 C580.5,340.3,582.6,341,583.5,340.9z"></path> <path class="st28" d="M571.4,294.7c-1.1,1.5-1.3,3.4-0.6,5.1c0.6,1.3,1.6,2.3,2.3,3.6c1,2,0.9,4.4-0.2,6.3 c-0.3,0.3-0.4,0.7-0.5,1.1c-0.2,1,0.9,1.8,1.8,2.4c3.9,2.8,5.6,7.9,5.9,12.7c0.1,1,0,2-0.2,3c-0.5,1.5-1.3,2.9-2.4,4 c1.2,0.4,2.5,0.7,3.8,0.7c1.3,0,2.6-0.6,3.3-1.6c0.4-0.5,0.5-1.2,0.9-1.8c0.3-0.6,0.9-0.9,1.6-0.9c0.3,0.1,0.5,0.2,0.7,0.4 c1.5,1.1,3.3,1.8,5.1,2c1.6,0.2,3.4-0.1,4.4-1.3c0.7-0.9,1-2.1,0.8-3.3c-0.4-4.1-3.8-7.4-4.6-11.4c-0.7-3.3,0.5-6.6,0.7-9.9 c0.3-4.9-1.5-9.7-3.2-14.3c-0.4-1.1-0.9-2.2-1.5-3.3c-1.6-2.1-4-3.5-6.6-3.7c-1-0.1-1.9,0-2.9,0.3c-0.9,0.4-1.7,1-2.5,1.7 c-1.7,1.5-3.4,2.9-4.4,5c-0.4,0.8-0.7,1.7-1.1,2.5"></path> <g class="st29"> <path d="M573,292.9c0.4-0.8,0.7-1.7,1.1-2.5c0.4-0.8,0.9-1.5,1.4-2.1c-1,0.9-1.9,2.1-2.5,3.3c-0.4,0.8-0.6,1.7-1.1,2.4l0.5-0.5 c-0.1,0.2-0.3,0.4-0.4,0.6C572.5,293.7,572.8,293.3,573,292.9z"></path> <path d="M593.9,330.7c-1.8-0.2-3.6-0.9-5.1-2c-0.2-0.2-0.5-0.3-0.7-0.4c-0.7-0.1-1.3,0.3-1.6,0.9c-0.1,0.1-0.1,0.2-0.2,0.4 c0.2-0.1,0.5-0.1,0.7-0.1c0.3,0.1,0.5,0.2,0.7,0.4c1.5,1.1,3.3,1.8,5.1,2c1.6,0.2,3.4-0.1,4.4-1.3c0.1-0.2,0.2-0.3,0.3-0.5 C596.5,330.7,595.2,330.9,593.9,330.7z"></path> <path d="M582.2,332.5c-1.3,0-2.6-0.3-3.8-0.7c1.1-1.2,1.9-2.5,2.4-4c0.2-1,0.3-2,0.2-3c-0.3-4.8-2-9.9-5.9-12.7 c-0.9-0.6-1.9-1.4-1.8-2.4c0.1-0.4,0.3-0.8,0.6-1.1c1.1-1.9,1.2-4.3,0.2-6.3c-0.7-1.3-1.7-2.3-2.3-3.6c-0.6-1.5-0.5-3.1,0.2-4.5 c-0.2,0.2-0.4,0.4-0.6,0.6c-0.2,0.2-0.3,0.4-0.5,0.6c-0.8,1.4-0.8,3.1-0.2,4.5c0.6,1.3,1.6,2.3,2.3,3.6c1,2,0.9,4.4-0.2,6.3 c-0.3,0.3-0.4,0.7-0.5,1.1c-0.2,1,0.9,1.8,1.8,2.4c3.9,2.8,5.6,7.9,5.9,12.7c0.1,1,0,2-0.2,3c-0.5,1.5-1.3,2.9-2.4,4 c1.2,0.4,2.5,0.7,3.8,0.7c1.3,0,2.6-0.6,3.3-1.6c0-0.1,0.1-0.1,0.1-0.2C583.9,332.2,583.1,332.5,582.2,332.5z"></path> </g> <linearGradient id="SVGID_2_" gradientUnits="userSpaceOnUse" x1="86.6048" y1="630.7811" x2="86.6048" y2="735.319" gradientTransform="matrix(1 0 0 -1 -52.96 1059.0167)"> <stop offset="0" style="stop-color:#808080;stop-opacity:0.25"></stop> <stop offset="0.54" style="stop-color:#808080;stop-opacity:0.12"></stop> <stop offset="1" style="stop-color:#808080;stop-opacity:0.1"></stop> </linearGradient> <path class="st30" d="M52.3,420.2c-1.5-0.2-3-0.7-4.3-1.6l-0.1-0.1c0.1-0.2,0.2-0.3,0.2-0.5c-0.2-0.4-0.3-0.7-0.3-1.1 c0-0.4-0.1-0.7-0.2-1.1v-1.8c-0.4-0.6-0.7-1.4-0.6-2.1c-0.1-1.5-0.1-9-0.1-9c-0.1-0.4-0.1-0.8-0.1-1.2c0.1-0.9,0.1-1.2,0.1-1.2 c-0.2-0.5-0.2-1-0.2-1.6c0-0.5-0.1-1-0.4-1.4l0.8-4.1c0,0,0.5-14.2-0.9-18.5l0,0c0,0,0,0,0-0.1c0.1-2.8-1.6-7.4-0.6-10.6 s1.1-3.9,1.1-3.9s-4.2-10.5-5.3-13c-0.6-1.6-1.3-3.2-2.2-4.7c-0.1-0.1-0.1-0.2-0.2-0.3l-0.1-0.1c0.2-0.4,0.4-0.8,0.4-1.3 c0.1-0.7-0.1-1.7,0.5-2.2c0.2-0.2,0.4-0.3,0.7-0.5c0.9-0.6,1.4-1.6,1.2-2.6c-0.2-0.8-0.5-1.6-1.1-2.2c0.1-0.4,0.1-0.7,0.1-1.1 c0-1.7-0.7-3.3-1.9-4.4l0,0v-0.3c0-0.8-0.2-1.5-0.7-2.1l0.2,0.1l-0.3-0.2c-0.1-0.1-0.3-0.2-0.4-0.3c-2.5-1.7-5.8-1.9-8.5-0.4 c-0.7,0.3-1.2,0.9-1.7,1.5c-0.9,1.4-0.7,3.1-1.1,4.6s-1.5,2.7-2.3,4c-0.9,1.3-1.6,2.8-1.3,4.3c0.2,1.1,1,2.1,1,3.2 c-0.1,1.2-1,2.2-2.2,2.3l0,0h-0.3c1.1,0.7,2.3,1.1,3.6,1.1c0,0.1-0.1,0.2-0.1,0.3c-1,3.9-1.9,8.8-1.9,8.8s0.6,5-0.7,8.9 c-1.3,3.9-1.1,11.9-1.1,11.9s3.6-1.8,3.8-0.7c0.2,1.2,0,1.5,0,1.5c0.5,0.3,1,0.5,1.6,0.7v0.5l-0.2,2.1c-0.1,0.4,0,0.9,0.2,1.3 c0.3,0.6,0,2.2,0,2.2s-0.3,0.2,0,0.9c0.1,0.6,0,1.3-0.2,1.8c0,0-0.3,4.1-0.4,4.9c-0.3,1.1-0.6,2.2-1.1,3.3c0,0,1,1.2,0,1.4 c-1,0.2-1.1,1.6-1.1,1.6s-1.1,0.9-1.1,1.3c-3.4,3.8-5.6,8.4-6.3,13.4c0,0-1.2,1.1-1,2.1c0.1,0.6-0.1,0.8-0.3,0.8 c0.2,0,0.4,0.2,0.3,0.7c-0.2,0.9-0.6,2.7-0.6,2.7h0.1l0,0c-0.9,1.1-2.3,2.8-2.5,4.4v0.2l-0.5,1.1l4.4,1.9l0.4-0.6 c0,0,2,2.2,4.2,2.7c0.4,0.1,0.8,0.1,1.2,0.1c1.2,0,2.5-0.3,3.6-0.7c0,0,1.6-2-2.6-2.4c0,0-2.5-2.8-2.2-4c0.1-0.5,0.1-1,0.2-1.5 c0-0.1,0-0.2,0-0.3l0.3,0l0.1-0.9c0.1-0.2,0.2-0.3,0.2-0.5c0-0.4-0.3-0.4,0-0.6c0.3-0.2,0.3,0,0.3-0.5c0-0.5-0.2-0.4,0.3-0.9 c0.5-0.5-0.1-1.5-0.1-1.5c0.6-0.5,1-1.2,1.1-2c-0.1-1.1,3.7-8.3,4.5-8.6s0.8-1.7,0.8-1.7s1.1,0.2,1.4,0c0.5-0.6,1-1.2,1.4-1.9 c0,0,4.2-10.7,4.3-14.8l0.3-0.9c0,0,1.6,2.1,1.4,3.6s1.2,2.6,1.2,2.6v4.6c0.2,0.8,0.3,1.6,0.3,2.4c-0.1,0.7,0.7,1.5,0.4,2.2 c-0.1,0.6-0.1,1.2,0,1.8c0,0-0.1,1.5,0,1.9s-0.2,5.4,1.2,7.6c0,0,0.6,1.6,0,2.6c-0.6,1,0.6,2.1,0.6,2.1s-0.7,1.2,0,2.1 c0.4,0.5,0.6,1.2,0.5,1.9c-0.3,1.1-0.5,2.5,0,3.6l0,0l0.1,1.6l4.3-0.3v-0.9c1.8,0.5,3.8,0.6,5.6,0.4c1.5-0.1,2.8-0.9,3.7-2 C55.2,422,56.9,419,52.3,420.2z"></path> <path class="st27" d="M54.4,422c-0.9,1.2-2.2,1.9-3.6,2c-1.8,0.2-3.7,0.1-5.5-0.4v0.9l-4.1,0.3l-0.1-1.5l0,0c-0.5-1-0.3-2.5,0-3.6 c0.1-0.5,0.3-1,0.5-1.5c0,0,3.6-3,4.7-0.7c0.3,0.5,0.6,0.9,1,1.2c1.2,0.8,2.7,1.4,4.1,1.6C56.1,419.1,54.4,422,54.4,422z"></path> <path class="st6" d="M43.4,419.1c0,0,0,2.8,2,2.8c2-0.1,2.3-1.1,1.7-1.8c-0.4-0.5-0.8-1.1-1.1-1.7L43.4,419.1z"></path> <path class="st27" d="M25.8,427.5c-1.1,0.5-2.3,0.7-3.5,0.7c-0.4,0-0.8,0-1.1-0.1c-2.2-0.5-4-2.7-4-2.7l-0.4,0.6l-4.3-1.9l0.5-1.1 v-0.2c0.2-1.5,1.5-3.3,2.4-4.4c0.5-0.6,0.9-1,0.9-1l5.1,0.7c0,0,0,0.7,0,1.5c0,0.5-0.1,1-0.1,1.5c-0.2,1.2,2.2,4,2.2,4 C27.3,425.5,25.8,427.5,25.8,427.5z"></path> <path class="st22" d="M15.5,415c-0.1,0-0.2,0-0.3,0C15.4,415,15.4,415,15.5,415z"></path> <path class="st6" d="M21.3,418.2c0,0,0,0.7,0,1.5l-6-1c0,0,0-0.1,0.1-0.3c0.5-0.6,0.9-1,0.9-1L21.3,418.2z"></path> <path class="st6" d="M47.4,418.6c-0.9,2.1-6.3,1.6-6.3,1.6c0-0.2,0-0.3,0-0.5c0.1-0.5,0.3-1,0.5-1.5c0,0,3.6-3,4.7-0.7 C46.6,417.9,47,418.3,47.4,418.6z"></path> <path class="st22" d="M47.5,418c-0.5,2.4-6.4,1.9-6.4,1.9c0.1-0.7-0.1-1.5-0.5-2c-0.7-0.9,0-2.1,0-2.1s-1.1-1-0.5-2.1 c0.6-1,0-2.6,0-2.6c-1.4-2.2-1.1-7.1-1.2-7.5c-0.1-0.4,0-1.9,0-1.9c-0.1-0.6-0.1-1.2,0-1.8c0.3-0.6-0.4-1.4-0.4-2.2 c0-0.8-0.1-1.6-0.2-2.4v-4.6c-0.8-0.6-1.2-1.6-1.2-2.6c0.2-1.5-1.4-3.6-1.4-3.6l-0.3,0.9c-0.1,4-4.2,14.7-4.2,14.7 c-0.4,0.7-0.8,1.3-1.3,1.9c-0.3,0.2-1.3,0-1.3,0s-0.1,1.4-0.8,1.7c-0.8,0.3-4.4,7.4-4.4,8.6c-0.1,0.8-0.5,1.5-1.1,2 c0,0,0.5,1,0.1,1.5c-0.5,0.5-0.3,0.4-0.3,0.9s0,0.3-0.3,0.5s0,0.3,0,0.6c0,0.2,0,0.4-0.2,0.5l-0.1,0.9l-6.3-1c0,0,0.4-1.8,0.6-2.7 c0.1-0.5-0.1-0.6-0.3-0.7c0.2-0.1,0.4-0.3,0.3-0.8c-0.2-1,1-2.1,1-2.1c0.7-5,2.7-9.6,6-13.4c0-0.3,1.1-1.2,1.1-1.2s0.1-1.5,1-1.6 c0.9-0.1,0-1.3,0-1.3c0.5-1.1,0.8-2.2,1.1-3.3c0.1-0.9,0.4-4.9,0.4-4.9c0.2-0.6,0.3-1.2,0.2-1.8c-0.3-0.7,0-0.9,0-0.9 s0.3-1.6,0-2.2c-0.2-0.4-0.2-0.9-0.2-1.3l0.1-2.1l0.2-3.2c0,0,16.8-2.9,18.6-0.5c0.2,0.3,0.4,0.6,0.4,0.9 c1.3,4.3,0.9,18.4,0.9,18.4l-0.8,4.1c0.3,0.4,0.4,0.9,0.4,1.4c-0.1,0.5,0,1.1,0.2,1.6c0,0,0,0.3-0.1,1.2c0,0.4,0,0.8,0.1,1.2 c0,0,0.1,7.4,0.1,9c0,0.7,0.2,1.5,0.6,2.1v1.8c0.1,0.3,0.2,0.7,0.2,1.1C47.3,417.3,47.3,417.7,47.5,418z"></path> <path class="st6" d="M22.3,428.3c-0.4,0-0.8,0-1.1-0.1c-2.2-0.5-4-2.7-4-2.7l-0.4,0.6l-4.3-1.9l0.5-1.1v-0.2l4.4,2.2 C17.4,425,20.9,426.7,22.3,428.3z"></path> <path class="st6" d="M50.8,424c-1.8,0.2-3.7,0.1-5.5-0.4v0.9l-4.1,0.3l-0.1-1.5c1.3,0,3.4,0.1,4.3,0C47.2,423.3,49,423.6,50.8,424 z"></path> <path class="st6" d="M17.6,413.6c0.2,0,0.4,0,0.6,0.1c0.2,0.1,0.4,0.3,0.6,0.4c0.1,0.1,0.3,0.2,0.4,0.3c0.2,0.2,0.2,0.4,0.4,0.5 c0.3,0.3,0.7,0.2,1.1,0.4c0,0,0.1,0,0.1,0.1c0,0,0,0.1-0.1,0.1c-0.2,0.1-0.4,0.1-0.6,0c-0.2-0.1-0.4-0.2-0.5-0.4 c-0.3-0.3-0.6-0.5-1-0.6c-0.5-0.2-1.4-0.3-1.7-0.7C17.2,413.6,17.4,413.6,17.6,413.6z"></path> <path class="st6" d="M17.2,414.7c0.1,0,0.2,0.1,0.3,0.1l0.6,0.3c-0.4,0-0.8-0.1-1.1-0.3c-0.1,0-0.2-0.1-0.4-0.2 C16.8,414.7,17,414.7,17.2,414.7z"></path> <path class="st6" d="M17.9,415.7c0.1,0,0.2,0,0.4,0c0.2,0.1,0.4,0.2,0.6,0.3c0.4,0.3,0.9,0.5,1.4,0.5c-0.1,0-0.2,0.1-0.3,0.1h-1.2 c-0.1,0-0.3,0-0.4,0c-0.2,0-0.3-0.1-0.5-0.2c-0.2-0.1-1-0.3-1-0.6C16.9,415.5,17.7,415.7,17.9,415.7z"></path> <path class="st6" d="M44.3,417.1c0.4,0,0.7,0,1.1,0c0.4,0,0.7-0.1,1.1-0.3c0.3-0.2,0.2-0.5-0.1-0.5c-0.4,0-0.7,0.1-1.1,0.3 c-0.2,0.1-0.3,0.2-0.5,0.3C44.7,416.8,44.4,417.1,44.3,417.1z"></path> <path class="st6" d="M45.6,417.6c0,0.1-0.2,0.2-0.3,0.3c-0.3,0.1-0.6,0.2-0.9,0.2c-0.1,0-0.3,0-0.3-0.1c0-0.1,0.4-0.1,0.4-0.1 C44.9,417.8,45.3,417.8,45.6,417.6z"></path> <path class="st6" d="M42.4,417.4c0.4,0,0.9,0,1.3,0.3l0,0l0,0c-0.1,0.2-0.3,0.3-0.4,0.2c-0.2,0-0.3-0.1-0.5-0.1 c-0.3-0.1-0.6-0.1-0.8-0.1c-0.1,0-0.3,0-0.4,0c-0.4-0.1-0.3-0.2,0-0.3C41.8,417.4,42.1,417.4,42.4,417.4z"></path> <path class="st6" d="M27.6,396.2c-0.5-0.4-1.2-0.6-1.8-0.6C26.4,395.6,27.1,395.8,27.6,396.2z"></path> <path class="st6" d="M27.1,394.1c0.5,0,1,0.1,1.4,0.4l-0.5-0.1C27.7,394.2,27.4,394.2,27.1,394.1c-0.2,0.1-0.4,0.1-0.5,0.1 s-0.4-0.1-0.6-0.1C26.3,394.1,26.7,394,27.1,394.1z"></path> <path class="st6" d="M28.7,395.1c0.2,0,0.3,0.1,0.4,0.3c-0.4-0.2-0.8-0.3-1.2-0.4c-0.2-0.1-0.9-0.4-1.1-0.2 C27.4,394.9,28.1,395,28.7,395.1z"></path> <path class="st6" d="M30.2,390.3c0.7-0.2,1.3-0.6,1.9-1.2c0,0.5-0.3,0.9-0.7,1.2c-0.4,0.3-0.9,0.4-1.4,0.5 c-0.5,0.1-0.9,0.2-1.4,0.4c-0.2,0.1-0.9,0.7-1.1,0.7s0.2-0.5,0.3-0.5C28.5,391,29.3,390.6,30.2,390.3z"></path> <path class="st6" d="M43.4,397.3c-0.2-0.1-3,0.5-2.8-0.1c0.1-0.3,1-0.2,1.2-0.2C42.4,397,42.9,397.1,43.4,397.3z"></path> <path class="st7" d="M40.4,332.8c0,0.5,0,0.9-0.1,1.3c-0.7,3.3-4,5.4-7.4,4.7c-3.3-0.7-5.4-4-4.7-7.4c0.7-3.3,4-5.4,7.4-4.7 C38.4,327.4,40.4,329.9,40.4,332.8z"></path> <path class="st31" d="M37.4,335.4c0,0-2,5.8-0.9,7c1.1,1.2-8.1,1.9-8.1,1.9s3.9-7,3.5-8.7C31.6,333.8,37.4,335.4,37.4,335.4z"></path> <path class="st6" d="M45.7,375.1c0,0.1,0,0.3,0,0.4c-0.1,2.8-5,8.3-6.2,7.4s-8.8-2.8-8.8-2.8s-1.1-1.8-2.3-1.8 c-0.7-0.1-1.3-0.2-2-0.5l0.2-3.2c0,0,16.8-2.9,18.6-0.5C45.5,374.4,45.7,374.7,45.7,375.1z"></path> <path class="st32" d="M45.7,375c-0.1,1.4-1.3,3.5-2.7,5.1c-1.4,1.6-2.9,2.8-3.5,2.3c-0.4-0.3-0.9-0.5-1.3-0.6 c-2.6-0.9-7.5-2.1-7.5-2.1s-1.1-1.8-2.3-1.8s-3.5-1.2-3.5-1.2s0.2-0.3,0-1.5c-0.2-1.2-3.7,0.6-3.7,0.6s-0.2-8,1.1-11.9 s0.6-8.8,0.6-8.8s0.9-4.9,1.9-8.8c0.6-2.3,1.2-4.3,1.7-4.6c1.2-0.8,7.7,0,7.7,0c1.2,0,2.5,0.1,3.7,0.3c0.3,0.1,0.6,0.3,0.8,0.6 l0.2,0.3c0.8,1.5,1.6,3,2.2,4.7c1,2.5,5.1,12.9,5.1,12.9s-0.1,0.7-1,3.9S45.8,372.2,45.7,375z"></path> <path class="st7" d="M41.1,378.2l1.9,1.9c0,0,1.8,6.1-0.5,5.6s-4.3-3.9-4.3-3.9L41.1,378.2z"></path> <path class="st6" d="M46,361.1c-4.6-0.1-5.8-6.5-5.8-6.5s-0.3-6.4-0.9-7.5c-0.4-1.2-0.5-2.4-0.5-3.6c0.8,1.5,1.6,3,2.2,4.7 C42,350.6,46,361.1,46,361.1z"></path> <path class="st32" d="M46.2,360.6c-4.6-0.1-5.8-6.5-5.8-6.5s-0.3-6.4-0.9-7.5c-0.4-1.2-0.5-2.4-0.5-3.6c0.8,1.5,1.6,3,2.2,4.7 C42.1,350.1,46.2,360.6,46.2,360.6z"></path> <path class="st6" d="M38,344.8c0,0-1.3-3.7-3.6,0c-1.4,2.6-2.2,5.4-2.3,8.3l-0.4,10.1c0.4,0.7,0.6,1.4,0.7,2.1 c0,0.7,1.3,2.9,1.3,2.9s0.3,4.3,1.6,5l1.2,3.5c0,0,0.1,2.3,0.9,3.2c0.5,0.7,0.6,1.5,0.4,2.3l4.8-1.7c0,0-0.5,0.2,0-1.3 c0.5-1.4-0.3-3.3-0.3-3.3s-3.1-6.7-3.5-7.7s-0.9-2.1-0.7-3.2s0-13.2,0.3-15C38.6,348.3,38,344.8,38,344.8z"></path> <path class="st27" d="M38.5,344.3c0,0-1.3-3.7-3.6,0c-1.4,2.6-2.2,5.4-2.3,8.3l-0.4,10.1c0.4,0.7,0.6,1.4,0.7,2.1 c0,0.7,1.3,2.9,1.3,2.9s0.3,4.3,1.6,5l1.2,3.5c0,0,0.1,2.3,0.9,3.2c0.5,0.7,0.6,1.5,0.4,2.3l4.8-1.7c0,0-0.5,0.2,0-1.3 c0.5-1.5-0.3-3.4-0.3-3.4s-3.1-6.7-3.5-7.7c-0.4-1-0.9-2.1-0.7-3.2c0.2-1.1,0-13.2,0.3-15C39.1,347.8,38.5,344.3,38.5,344.3z"></path> <path class="st6" d="M38.5,376c0.2,0,0.4,0.1,0.6,0.2c0.1,0.1,0.3,0.2,0.4,0.3c0.2,0.1,0.4,0.1,0.6,0.1c-0.2,0-0.4,0-0.6,0 c-0.1,0-0.3,0-0.4-0.1c-0.1-0.1-0.2-0.1-0.3-0.2c-0.1-0.1-0.3-0.2-0.4-0.2c-0.1,0-0.2-0.1-0.3-0.2C38.2,375.9,38.4,375.9,38.5,376 z"></path> <path class="st6" d="M40.4,377.4c0.2,0,0.4,0,0.6-0.1c0.3,0,0.6,0,0.9,0c-0.4,0.2-0.9,0.3-1.4,0.3c-0.1,0-0.3,0-0.4,0 c-0.1,0.1-0.6,0.6-0.6,0.1S40.1,377.4,40.4,377.4z"></path> <path class="st6" d="M37.9,326.3l-0.8-0.6c0.1,0,0.2,0.1,0.2,0.1c0.2,0.1,0.3,0.2,0.4,0.3l0.3,0.2L37.9,326.3z"></path> <path class="st6" d="M38.7,342.7c-0.1,0.3-0.4,0.6-0.7,0.8c-0.2,0.1-0.4,0.2-0.6,0.2c-0.3,0-0.6,0-0.9-0.1 c-0.4-0.1-0.7-0.2-1.1-0.3c-0.7-0.3-1.4-0.5-2.1-0.7c-1.1-0.3-2.2-0.1-3.1,0.6c-0.7,0.7-0.8,1.8-1.5,2.5c-0.9,0.9-2.4,0.9-3.7,0.7 l-0.3,0c0.6-2.3,1.2-4.3,1.7-4.6c1.2-0.8,7.7,0,7.7,0c1.2,0,2.5,0.1,3.7,0.3C38.3,342.2,38.6,342.4,38.7,342.7z"></path> <path class="st6" d="M28.1,332.8c0-3.4,2.7-6.2,6.1-6.2c1.6,0,3.2,0.6,4.3,1.8l0,0c0,1.1-0.2,2.2,0.1,3.2c0.4,0.9,0.9,1.8,1.6,2.5 c-0.8,3.3-4.1,5.4-7.4,4.6C30.1,338.1,28.1,335.7,28.1,332.8z"></path> <path class="st22" d="M38,326.1c-2.4-2.2-6-2.6-8.9-1c-0.6,0.4-1.2,0.9-1.6,1.5c-0.8,1.3-0.6,3.1-1.1,4.6 c-0.4,1.5-1.4,2.7-2.3,3.9c-0.8,1.3-1.5,2.8-1.2,4.3c0.2,1.1,1,2.1,1,3.2c-0.1,1.3-1.1,2.3-2.4,2.3c1.1,0.7,2.3,1.1,3.6,1.2 c1.3,0.2,2.8,0.2,3.7-0.7c0.7-0.7,0.8-1.8,1.5-2.5c0.9-0.7,2-1,3.1-0.6c1.1,0.3,2.1,0.7,3.1,1.1c0.3,0.1,0.6,0.1,0.9,0.1 c0.9-0.1,1.5-1.1,1.5-2.1c0.1-0.7-0.1-1.7,0.5-2.2c0.2-0.2,0.4-0.3,0.7-0.5c0.9-0.6,1.3-1.6,1.2-2.6c-0.3-1.8-2.2-2.9-2.8-4.7 c-0.3-1-0.1-2.1-0.1-3.2s-0.4-2.3-1.4-2.7"></path> <path class="st6" d="M41.3,336c-0.3-1.8-2.2-2.9-2.8-4.7c-0.3-1-0.1-2.1-0.1-3.2c0-0.7-0.2-1.5-0.6-2.1l0.2,0.1 c-0.1-0.1-0.2-0.2-0.3-0.2c-0.1-0.1-0.3-0.2-0.4-0.3l-0.3-0.2l0.1,0.1l-0.2-0.1c0.4,0.6,0.7,1.3,0.6,2.1c0,1.1-0.2,2.2,0.1,3.2 c0.5,1.8,2.5,2.9,2.8,4.7c0.1,1-0.3,2.1-1.2,2.6c-0.2,0.1-0.5,0.3-0.7,0.5c-0.5,0.5-0.4,1.5-0.5,2.2c-0.1,0.9-0.6,1.9-1.5,2.1 c-0.3,0-0.6,0-0.9-0.1c-1.1-0.3-2.1-0.8-3.1-1.1c-1.1-0.3-2.2-0.1-3.1,0.6c-0.7,0.7-0.8,1.8-1.5,2.5c-0.9,0.9-2.4,0.9-3.7,0.7 c-0.8-0.1-1.7-0.3-2.5-0.6c-0.1,0-0.2,0-0.3,0c1.1,0.7,2.3,1.1,3.6,1.2c1.3,0.2,2.8,0.2,3.7-0.7c0.7-0.7,0.8-1.8,1.5-2.5 c0.9-0.7,2-1,3.1-0.6c1.1,0.3,2.1,0.7,3.1,1.1c0.3,0.1,0.6,0.1,0.9,0.1c0.9-0.1,1.5-1.1,1.5-2.1c0.1-0.7-0.1-1.7,0.5-2.2 c0.2-0.2,0.4-0.3,0.7-0.5C40.9,338.1,41.4,337.1,41.3,336z"></path> <path class="st16" d="M65,423.9c1.2,3.9-14.6,6.5-33.3,5.7C15,429,1.9,425.9,0.9,422.7s10.4-5.8,26.9-5.9 C46.2,416.8,63.8,420,65,423.9z"></path> </g> </g> </svg> 