<?xml version="1.0" encoding="UTF-8"?> <!-- Generator: Adobe Illustrator 25.4.1, SVG Export Plug-In . SVG Version: 6.00 Build 0) --> <svg xmlns="http://www.w3.org/2000/svg" xmlns:xlink="http://www.w3.org/1999/xlink" version="1.1" x="0px" y="0px" viewBox="0 0 971.6 781.4" style="enable-background:new 0 0 971.6 781.4;" xml:space="preserve"> <style type="text/css"> .st0{display:none;} .st1{display:inline;stroke:#FFFFFF;stroke-miterlimit:10;} .st2{fill:#FFFFFF;} .st3{fill:#E6E6E6;} .st4{fill:#3F3D56;} .st5{fill:#54A832;} .st6{fill:#F1F1F1;} .st7{fill:#FFB8B8;} .st8{fill:#2F2E41;} .st9{fill:#CCCCCC;} </style> <g id="Calque_3" class="st0"> <rect x="161.1" y="122.8" class="st1" width="164" height="118.1"></rect> </g> <g id="Calque_2"> <rect x="218.2" y="2.9" class="st2" width="750.4" height="447.2"></rect> </g> <g id="b0c2ce5f-88b4-49a2-9766-ff0a73ff0798"> <path class="st3" d="M964.4,453H222.5c-4,0-7.2-3.2-7.2-7.2V7.2c0-4,3.2-7.2,7.2-7.2h741.8c4,0,7.2,3.2,7.2,7.2v438.6 C971.6,449.7,968.3,453,964.4,453z M222.5,2.9c-2.4,0-4.3,1.9-4.3,4.3v438.6c0,2.4,1.9,4.3,4.3,4.3h741.8c2.4,0,4.3-1.9,4.3-4.3 V7.2c0-2.4-1.9-4.3-4.3-4.3C964.3,2.9,222.5,2.9,222.5,2.9z"></path> <path id="bbcc4262-a9b8-4c1e-bf70-e1245b5187b9" class="st4" d="M521.9,35c-3.2,0.1-5.7,2.7-5.6,5.8c0.1,3.1,2.5,5.6,5.6,5.6H665 c3.2,0,5.7-2.5,5.8-5.6c0-3.1-2.4-5.7-5.6-5.8l0,0c-0.1,0-0.1,0-0.2,0H521.9z"></path> <path class="st3" d="M697.5,33.4c-0.4,0.4-0.4,1.1,0,1.6l0,0l0,0l4.8,4.8h-11.9c-0.6,0-1.1,0.5-1.1,1.1s0.5,1.1,1.1,1.1h11.9 l-4.8,4.8c-0.4,0.4-0.4,1.1,0,1.6c0.4,0.4,1.1,0.4,1.6,0l0,0l6.7-6.7c0.4-0.4,0.4-1.1,0-1.6l-6.7-6.7C698.6,33,697.9,33,697.5,33.4 L697.5,33.4L697.5,33.4z"></path> <path class="st3" d="M489.4,33.4c0.4,0.4,0.4,1.1,0,1.6l0,0l-4.8,4.8h11.9c0.6,0,1.1,0.5,1.1,1.1s-0.5,1.1-1.1,1.1l0,0h-11.9 l4.8,4.8c0.4,0.4,0.4,1.1,0,1.6c-0.4,0.4-1.1,0.4-1.6,0l0,0l-6.7-6.7c-0.4-0.4-0.4-1.1,0-1.6l6.7-6.7C488.3,33,489,33,489.4,33.4 L489.4,33.4z"></path> <path class="st5" d="M214.9,477.1c-18.2,0-32.9-14.7-32.9-32.9c0-18.2,14.7-32.9,32.9-32.9s32.9,14.7,32.9,32.9 C247.8,462.4,233.1,477.1,214.9,477.1z"></path> <path class="st2" d="M227.9,441h-9.7v-9.7c0-1.8-1.4-3.2-3.2-3.2s-3.2,1.4-3.2,3.2l0,0v9.7h-9.7c-1.8,0-3.2,1.5-3.2,3.2 c0,1.8,1.5,3.2,3.2,3.2l0,0h9.7v9.7c0,1.8,1.5,3.2,3.2,3.2c1.8,0,3.2-1.5,3.2-3.2v-9.7h9.7c1.8,0,3.2-1.5,3.2-3.2 C231.1,442.4,229.7,441,227.9,441L227.9,441L227.9,441z"></path> <rect x="275.3" y="93.4" class="st6" width="98.8" height="67.2"></rect> <rect x="409.7" y="93.4" class="st6" width="98.8" height="67.2"></rect> <rect x="544" y="93.4" class="st6" width="98.8" height="67.2"></rect> <rect x="678.4" y="93.4" class="st6" width="98.8" height="67.2"></rect> <rect x="812.7" y="93.4" class="st6" width="98.8" height="67.2"></rect> <rect x="275.7" y="211.5" class="st6" width="98.8" height="67.2"></rect> <rect x="410" y="211.5" class="st6" width="98.8" height="67.2"></rect> <rect x="544.4" y="211.5" class="st6" width="98.8" height="67.2"></rect> <rect x="678.7" y="211.5" class="st6" width="98.8" height="67.2"></rect> <rect x="813.1" y="211.5" class="st6" width="98.8" height="67.2"></rect> <rect x="276" y="329.5" class="st6" width="98.8" height="67.2"></rect> <rect x="410.4" y="329.5" class="st6" width="98.8" height="67.2"></rect> <rect x="544.7" y="329.5" class="st6" width="98.8" height="67.2"></rect> <rect x="679.1" y="329.5" class="st6" width="98.8" height="67.2"></rect> <rect x="813.5" y="329.5" class="st6" width="98.8" height="67.2"></rect> <circle class="st5" cx="564.5" cy="114.6" r="12.5"></circle> <circle class="st5" cx="428.3" cy="232.6" r="12.5"></circle> <circle class="st5" cx="564.5" cy="350.6" r="12.5"></circle> <circle class="st4" cx="701.8" cy="232.6" r="12.5"></circle> <circle class="st4" cx="835.2" cy="232.6" r="12.5"></circle> <circle class="st4" cx="428.3" cy="350.6" r="12.5"></circle> <circle class="st7" cx="101.2" cy="446.6" r="23.2"></circle> <path class="st7" d="M92.8,583.7c-0.3,0-0.6,0-0.9,0c-5.7-0.5-10-5.5-9.5-11.2c0-0.4,0.1-0.8,0.2-1.2c0.1-0.3,0.2-0.7,0.3-1 l-34.2-40.4c-2.3-2.7-2.5-6.6-0.6-9.6l0.1-0.1L79,489.8c3.5-3.4,9.1-3.4,12.6,0.1c3.4,3.5,3.4,9.1-0.1,12.6l-0.1,0.1L69,523.8 L93.4,563c0.5,0,0.9,0.1,1.4,0.2c5.6,1.1,9.3,6.6,8.1,12.2C102,580.2,97.7,583.7,92.8,583.7L92.8,583.7z"></path> <polygon class="st7" points="139.3,769.1 150.9,769.1 156.4,724.5 139.3,724.5 "></polygon> <path class="st8" d="M136.4,765.3h22.8l0,0c8,0,14.5,6.5,14.5,14.5v0.5h-37.3V765.3z"></path> <polygon class="st7" points="24.4,753.1 34.3,759 61.9,723.5 47.2,714.8 "></polygon> <path class="st8" d="M23.8,748.4L43.3,760l0,0c6.9,4.1,9.1,13,5,19.9l0,0l-0.2,0.4l-32-19.1L23.8,748.4z"></path> <path class="st8" d="M153.6,753.4h-13c-2.2,0-4-1.6-4.2-3.8l-13.1-122.7c-0.1-0.8-0.8-1.3-1.6-1.3c-0.5,0.1-0.9,0.4-1.1,0.8 L97,678.6l-41.7,68c-1.1,1.8-3.4,2.5-5.3,1.7L33.3,741c-2.1-0.9-3.1-3.5-2.2-5.6c0.1-0.2,0.2-0.3,0.2-0.5l38.3-64.2l11.8-54.1 c-3.7-23.5,12.2-58.3,12.3-58.7l0.1-0.2l43.7-17.1l0.2,0.3c17.2,56.5,27.7,117.3,20,208.6C157.7,751.7,155.8,753.3,153.6,753.4z"></path> <path class="st5" d="M92.2,563.4L92,563c-0.1-0.2-9.8-20.7-17.3-42.6c-2.9-8.6-2.1-17.9,2.2-25.9c4.4-8,11.9-13.8,20.8-16l0,0 c15.7-3.8,31.9,4.6,37.9,19.6c5.9,14.8,4,30.7,2.3,43.2v0.2l-0.2,0.1L92.2,563.4z"></path> <path class="st8" d="M129.3,433.5H92.5v-16c8.1-3.2,16-5.9,20.8,0C122.1,417.5,129.3,424.7,129.3,433.5L129.3,433.5z"></path> <path class="st8" d="M90.4,414.7c-22,0-28.2,27.6-28.2,43.1c0,8.7,3.9,11.8,10.1,12.8l2.2-11.6l5.1,12.1c1.7,0,3.6,0,5.4-0.1 l1.7-3.6l3.9,3.5c15.4,0,27.9,2.3,27.9-13.2C118.6,442.2,113.2,414.7,90.4,414.7z"></path> <path class="st7" d="M188.2,445.5c0.1,0.3,0.3,0.5,0.4,0.8c2.3,5.2,0,11.4-5.3,13.7c-0.4,0.2-0.7,0.3-1.1,0.4 c-0.3,0.1-0.7,0.2-1,0.2L162.1,510c-1.3,3.3-4.6,5.4-8.2,5.1h-0.1l-41.4-12.5c-4.7-1.4-7.4-6.4-6-11.1s6.4-7.4,11.1-6l0,0 c0.1,0,0.1,0,0.2,0l29.3,9.4l22.7-40.2c-0.2-0.4-0.4-0.8-0.5-1.3c-1.7-5.5,1.3-11.3,6.8-13C180.7,439.1,185.8,441.2,188.2,445.5 L188.2,445.5z"></path> <path class="st9" d="M193,781.4H1c-0.6,0-1-0.4-1-1s0.4-1,1-1h192c0.6,0,1,0.4,1,1S193.6,781.4,193,781.4z"></path> </g> </svg> 